<svg id="visual" viewBox="0 0 900 600" width="900" height="600" xmlns="http://www.w3.org/2000/svg" xmlns:xlink="http://www.w3.org/1999/xlink" version="1.1"><rect x="0" y="0" width="900" height="600" fill="#001220"></rect><path d="M467 0L475 14.3C483 28.7 499 57.3 502 85.8C505 114.3 495 142.7 469 171.2C443 199.7 401 228.3 387 257C373 285.7 387 314.3 402.7 343C418.3 371.7 435.7 400.3 423.7 428.8C411.7 457.3 370.3 485.7 370.2 514.2C370 542.7 411 571.3 431.5 585.7L452 600L0 600L0 585.7C0 571.3 0 542.7 0 514.2C0 485.7 0 457.3 0 428.8C0 400.3 0 371.7 0 343C0 314.3 0 285.7 0 257C0 228.3 0 199.7 0 171.2C0 142.7 0 114.3 0 85.8C0 57.3 0 28.7 0 14.3L0 0Z" fill="#75449a"></path><path d="M286 0L284.2 14.3C282.3 28.7 278.7 57.3 287.3 85.8C296 114.3 317 142.7 321.3 171.2C325.7 199.7 313.3 228.3 303.2 257C293 285.7 285 314.3 288.8 343C292.7 371.7 308.3 400.3 324.2 428.8C340 457.3 356 485.7 359.2 514.2C362.3 542.7 352.7 571.3 347.8 585.7L343 600L0 600L0 585.7C0 571.3 0 542.7 0 514.2C0 485.7 0 457.3 0 428.8C0 400.3 0 371.7 0 343C0 314.3 0 285.7 0 257C0 228.3 0 199.7 0 171.2C0 142.7 0 114.3 0 85.8C0 57.3 0 28.7 0 14.3L0 0Z" fill="#8644a9"></path><path d="M268 0L279.8 14.3C291.7 28.7 315.3 57.3 305 85.8C294.7 114.3 250.3 142.7 231 171.2C211.7 199.7 217.3 228.3 215.2 257C213 285.7 203 314.3 199.5 343C196 371.7 199 400.3 215 428.8C231 457.3 260 485.7 274.7 514.2C289.3 542.7 289.7 571.3 289.8 585.7L290 600L0 600L0 585.7C0 571.3 0 542.7 0 514.2C0 485.7 0 457.3 0 428.8C0 400.3 0 371.7 0 343C0 314.3 0 285.7 0 257C0 228.3 0 199.7 0 171.2C0 142.7 0 114.3 0 85.8C0 57.3 0 28.7 0 14.3L0 0Z" fill="#9842b7"></path><path d="M140 0L146 14.3C152 28.7 164 57.3 175.7 85.8C187.3 114.3 198.7 142.7 192 171.2C185.3 199.7 160.7 228.3 164 257C167.3 285.7 198.7 314.3 204.5 343C210.3 371.7 190.7 400.3 177.3 428.8C164 457.3 157 485.7 152.8 514.2C148.7 542.7 147.3 571.3 146.7 585.7L146 600L0 600L0 585.7C0 571.3 0 542.7 0 514.2C0 485.7 0 457.3 0 428.8C0 400.3 0 371.7 0 343C0 314.3 0 285.7 0 257C0 228.3 0 199.7 0 171.2C0 142.7 0 114.3 0 85.8C0 57.3 0 28.7 0 14.3L0 0Z" fill="#ac3ec4"></path><path d="M70 0L67.7 14.3C65.3 28.7 60.7 57.3 72.2 85.8C83.7 114.3 111.3 142.7 119.2 171.2C127 199.7 115 228.3 105.8 257C96.7 285.7 90.3 314.3 87.5 343C84.7 371.7 85.3 400.3 90.7 428.8C96 457.3 106 485.7 108.2 514.2C110.3 542.7 104.7 571.3 101.8 585.7L99 600L0 600L0 585.7C0 571.3 0 542.7 0 514.2C0 485.7 0 457.3 0 428.8C0 400.3 0 371.7 0 343C0 314.3 0 285.7 0 257C0 228.3 0 199.7 0 171.2C0 142.7 0 114.3 0 85.8C0 57.3 0 28.7 0 14.3L0 0Z" fill="#c136cf"></path></svg>