<?xml version="1.0" encoding="UTF-8"?>
<svg xmlns="http://www.w3.org/2000/svg" xmlns:xlink="http://www.w3.org/1999/xlink" viewBox="0 0 144 144" width="144px" height="144px">
<g id="surface23833954">
<path style=" stroke:none;fill-rule:nonzero;fill:rgb(100%,100%,100%);fill-opacity:1;" d="M 69 12 C 49.148438 12 33 33.808594 33 60.613281 C 33 75.117188 37.746094 88.121094 45.234375 97.023438 C 45.089844 97.660156 45 98.320312 45 99 C 45 103.972656 49.027344 108 54 108 C 58.972656 108 63 103.972656 63 99 C 63 94.027344 58.972656 90 54 90 C 53.054688 90 52.164062 90.1875 51.308594 90.457031 C 45.617188 83.191406 42 72.523438 42 60.613281 C 42 38.773438 54.109375 21 69 21 C 80.511719 21 90.332031 31.640625 94.210938 46.554688 C 97.578125 47.59375 100.921875 48.898438 104.203125 50.476562 C 100.738281 28.523438 86.277344 12 69 12 Z M 69 12 "/>
<path style=" stroke:none;fill-rule:nonzero;fill:rgb(100%,100%,100%);fill-opacity:1;" d="M 106.519531 60.253906 C 94.679688 53.074219 81.398438 49.925781 69.976562 51.375 C 68.324219 49.332031 65.828125 48 63 48 C 58.027344 48 54 52.027344 54 57 C 54 61.972656 58.027344 66 63 66 C 66.816406 66 70.058594 63.613281 71.367188 60.265625 C 80.722656 59.128906 91.804688 61.855469 101.855469 67.953125 C 121.066406 79.597656 130.867188 99.660156 123.703125 112.6875 C 121.222656 117.199219 116.84375 120.402344 111.046875 121.957031 C 104.191406 123.789062 96.027344 123.136719 87.867188 120.371094 C 85.351562 122.6875 82.621094 124.867188 79.691406 126.875 C 87.347656 130.226562 95.28125 131.988281 102.699219 131.988281 C 106.417969 131.988281 110.011719 131.546875 113.375 130.648438 C 121.597656 128.449219 127.898438 123.734375 131.589844 117.019531 C 141.046875 99.828125 129.800781 74.359375 106.519531 60.253906 Z M 106.519531 60.253906 "/>
<path style=" stroke:none;fill-rule:nonzero;fill:rgb(100%,100%,100%);fill-opacity:1;" d="M 105 86.976562 C 105 82.019531 100.972656 78 96 78 C 91.027344 78 87 82.019531 87 86.976562 C 87 88.984375 87.683594 90.820312 88.800781 92.3125 C 84.964844 100.71875 77.566406 109.015625 67.613281 115.046875 C 56.019531 122.078125 43.058594 124.652344 32.949219 121.953125 C 27.152344 120.398438 22.777344 117.195312 20.296875 112.683594 C 15.1875 103.402344 18.730469 90.554688 28.125 79.71875 C 27.15625 76.285156 26.4375 72.699219 26.007812 68.992188 C 10.796875 83.386719 4.679688 102.964844 12.410156 117.019531 C 16.101562 123.734375 22.402344 128.449219 30.625 130.648438 C 33.988281 131.546875 37.578125 131.988281 41.300781 131.988281 C 51.339844 131.988281 62.320312 128.785156 72.277344 122.746094 C 83.785156 115.773438 92.328125 106.015625 96.90625 95.863281 C 101.445312 95.402344 105 91.621094 105 86.976562 Z M 105 86.976562 "/>
</g>
</svg>
