<svg xmlns="http://www.w3.org/2000/svg" viewBox="0 0 750 500"><g id="freepik--background-complete--inject-30"><path d="M118.38,437c0,3-10.59,5.41-23.65,5.41S71.09,440,71.09,437s10.59-5.42,23.64-5.42S118.38,434,118.38,437Z" style="fill:#ebebeb"></path><path d="M94.73,442.94c-11.7,0-24.14-2.07-24.14-5.91s12.44-5.92,24.14-5.92,24.15,2.07,24.15,5.92S106.44,442.94,94.73,442.94Zm0-10.83c-13.64,0-23.14,2.59-23.14,4.92s9.5,4.91,23.14,4.91,23.15-2.59,23.15-4.91S108.37,432.11,94.73,432.11Z" style="fill:#ebebeb"></path><rect x="149.25" y="163.07" width="84.76" height="259.65" style="fill:#ebebeb"></rect><rect x="233.75" y="163.07" width="66.99" height="258.82" style="fill:#f5f5f5"></rect><rect x="153.8" y="204.63" width="71.9" height="20.24" style="fill:#e0e0e0"></rect><rect x="155.81" y="207.17" width="4.03" height="15.49" style="fill:#f5f5f5"></rect><circle cx="163.3" cy="210.43" r="1.28" style="fill:#fafafa"></circle><circle cx="163.3" cy="215.9" r="1.28" style="fill:#fafafa"></circle><rect x="169.69" y="209.15" width="3.96" height="11.9" style="fill:#f5f5f5"></rect><rect x="175.41" y="209.15" width="3.96" height="11.9" style="fill:#f5f5f5"></rect><rect x="181.12" y="209.15" width="3.96" height="11.9" style="fill:#f5f5f5"></rect><rect x="186.84" y="209.15" width="3.96" height="11.9" style="fill:#f5f5f5"></rect><rect x="192.55" y="209.15" width="3.96" height="11.9" style="fill:#f5f5f5"></rect><rect x="198.27" y="209.15" width="3.96" height="11.9" style="fill:#f5f5f5"></rect><rect x="203.98" y="209.15" width="3.96" height="11.9" style="fill:#f5f5f5"></rect><rect x="209.7" y="209.15" width="3.96" height="11.9" style="fill:#f5f5f5"></rect><rect x="215.41" y="209.15" width="3.96" height="11.9" style="fill:#f5f5f5"></rect><rect x="221.13" y="209.15" width="3.96" height="11.9" style="fill:#f5f5f5"></rect><rect x="153.8" y="237.05" width="71.9" height="20.24" style="fill:#e0e0e0"></rect><rect x="155.81" y="239.6" width="4.03" height="15.49" style="fill:#f5f5f5"></rect><circle cx="163.3" cy="242.85" r="1.28" style="fill:#fafafa"></circle><circle cx="163.3" cy="248.33" r="1.28" style="fill:#fafafa"></circle><rect x="169.69" y="241.57" width="3.96" height="11.9" style="fill:#f5f5f5"></rect><rect x="175.41" y="241.57" width="3.96" height="11.9" style="fill:#f5f5f5"></rect><rect x="181.12" y="241.57" width="3.96" height="11.9" style="fill:#f5f5f5"></rect><rect x="186.84" y="241.57" width="3.96" height="11.9" style="fill:#f5f5f5"></rect><rect x="192.55" y="241.57" width="3.96" height="11.9" style="fill:#f5f5f5"></rect><rect x="198.27" y="241.57" width="3.96" height="11.9" style="fill:#f5f5f5"></rect><rect x="203.98" y="241.57" width="3.96" height="11.9" style="fill:#f5f5f5"></rect><rect x="209.7" y="241.57" width="3.96" height="11.9" style="fill:#f5f5f5"></rect><rect x="215.41" y="241.57" width="3.96" height="11.9" style="fill:#f5f5f5"></rect><rect x="221.13" y="241.57" width="3.96" height="11.9" style="fill:#f5f5f5"></rect><rect x="153.8" y="269.47" width="71.9" height="20.24" style="fill:#e0e0e0"></rect><rect x="155.81" y="272.02" width="4.03" height="15.49" style="fill:#f5f5f5"></rect><circle cx="163.3" cy="275.28" r="1.28" style="fill:#fafafa"></circle><path d="M164.58,280.75a1.28,1.28,0,1,1-1.28-1.28A1.28,1.28,0,0,1,164.58,280.75Z" style="fill:#fafafa"></path><rect x="169.69" y="274" width="3.96" height="11.9" style="fill:#f5f5f5"></rect><rect x="175.41" y="274" width="3.96" height="11.9" style="fill:#f5f5f5"></rect><rect x="181.12" y="274" width="3.96" height="11.9" style="fill:#f5f5f5"></rect><rect x="186.84" y="274" width="3.96" height="11.9" style="fill:#f5f5f5"></rect><rect x="192.55" y="274" width="3.96" height="11.9" style="fill:#f5f5f5"></rect><rect x="198.27" y="274" width="3.96" height="11.9" style="fill:#f5f5f5"></rect><rect x="203.98" y="274" width="3.96" height="11.9" style="fill:#f5f5f5"></rect><rect x="209.7" y="274" width="3.96" height="11.9" style="fill:#f5f5f5"></rect><rect x="215.41" y="274" width="3.96" height="11.9" style="fill:#f5f5f5"></rect><rect x="221.13" y="274" width="3.96" height="11.9" style="fill:#f5f5f5"></rect><rect x="153.8" y="301.9" width="71.9" height="20.24" style="fill:#e0e0e0"></rect><rect x="155.81" y="304.44" width="4.03" height="15.49" style="fill:#f5f5f5"></rect><circle cx="163.3" cy="307.7" r="1.28" style="fill:#fafafa"></circle><path d="M164.58,313.18a1.28,1.28,0,1,1-2.56,0,1.28,1.28,0,1,1,2.56,0Z" style="fill:#fafafa"></path><rect x="169.69" y="306.42" width="3.96" height="11.9" style="fill:#f5f5f5"></rect><rect x="175.41" y="306.42" width="3.96" height="11.9" style="fill:#f5f5f5"></rect><rect x="181.12" y="306.42" width="3.96" height="11.9" style="fill:#f5f5f5"></rect><rect x="186.84" y="306.42" width="3.96" height="11.9" style="fill:#f5f5f5"></rect><rect x="192.55" y="306.42" width="3.96" height="11.9" style="fill:#f5f5f5"></rect><rect x="198.27" y="306.42" width="3.96" height="11.9" style="fill:#f5f5f5"></rect><rect x="203.98" y="306.42" width="3.96" height="11.9" style="fill:#f5f5f5"></rect><rect x="209.7" y="306.42" width="3.96" height="11.9" style="fill:#f5f5f5"></rect><rect x="215.41" y="306.42" width="3.96" height="11.9" style="fill:#f5f5f5"></rect><rect x="221.13" y="306.42" width="3.96" height="11.9" style="fill:#f5f5f5"></rect><rect x="153.8" y="334.32" width="71.9" height="20.24" style="fill:#e0e0e0"></rect><rect x="155.81" y="336.87" width="4.03" height="15.49" style="fill:#f5f5f5"></rect><circle cx="163.3" cy="340.13" r="1.28" style="fill:#fafafa"></circle><path d="M164.58,345.6a1.28,1.28,0,1,1-1.28-1.28A1.28,1.28,0,0,1,164.58,345.6Z" style="fill:#fafafa"></path><rect x="169.69" y="338.85" width="3.96" height="11.9" style="fill:#f5f5f5"></rect><rect x="175.41" y="338.85" width="3.96" height="11.9" style="fill:#f5f5f5"></rect><rect x="181.12" y="338.85" width="3.96" height="11.9" style="fill:#f5f5f5"></rect><rect x="186.84" y="338.85" width="3.96" height="11.9" style="fill:#f5f5f5"></rect><rect x="192.55" y="338.85" width="3.96" height="11.9" style="fill:#f5f5f5"></rect><rect x="198.27" y="338.85" width="3.96" height="11.9" style="fill:#f5f5f5"></rect><rect x="203.98" y="338.85" width="3.96" height="11.9" style="fill:#f5f5f5"></rect><rect x="209.7" y="338.85" width="3.96" height="11.9" style="fill:#f5f5f5"></rect><rect x="215.41" y="338.85" width="3.96" height="11.9" style="fill:#f5f5f5"></rect><rect x="221.13" y="338.85" width="3.96" height="11.9" style="fill:#f5f5f5"></rect><rect x="153.8" y="366.74" width="71.9" height="20.24" style="fill:#e0e0e0"></rect><rect x="155.81" y="369.29" width="4.03" height="15.49" style="fill:#f5f5f5"></rect><circle cx="163.3" cy="372.55" r="1.28" style="fill:#fafafa"></circle><path d="M164.58,378a1.28,1.28,0,1,1-1.28-1.28A1.28,1.28,0,0,1,164.58,378Z" style="fill:#fafafa"></path><rect x="169.69" y="371.27" width="3.96" height="11.9" style="fill:#f5f5f5"></rect><rect x="175.41" y="371.27" width="3.96" height="11.9" style="fill:#f5f5f5"></rect><rect x="181.12" y="371.27" width="3.96" height="11.9" style="fill:#f5f5f5"></rect><rect x="186.84" y="371.27" width="3.96" height="11.9" style="fill:#f5f5f5"></rect><rect x="192.55" y="371.27" width="3.96" height="11.9" style="fill:#f5f5f5"></rect><rect x="198.27" y="371.27" width="3.96" height="11.9" style="fill:#f5f5f5"></rect><rect x="203.98" y="371.27" width="3.96" height="11.9" style="fill:#f5f5f5"></rect><rect x="209.7" y="371.27" width="3.96" height="11.9" style="fill:#f5f5f5"></rect><rect x="215.41" y="371.27" width="3.96" height="11.9" style="fill:#f5f5f5"></rect><rect x="221.13" y="371.27" width="3.96" height="11.9" style="fill:#f5f5f5"></rect><rect x="153.8" y="399.17" width="71.9" height="20.24" style="fill:#e0e0e0"></rect><rect x="155.81" y="401.71" width="4.03" height="15.49" style="fill:#f5f5f5"></rect><circle cx="163.3" cy="404.97" r="1.28" style="fill:#fafafa"></circle><path d="M164.58,410.45a1.28,1.28,0,0,1-2.56,0,1.28,1.28,0,0,1,2.56,0Z" style="fill:#fafafa"></path><rect x="169.69" y="403.69" width="3.96" height="11.9" style="fill:#f5f5f5"></rect><rect x="175.41" y="403.69" width="3.96" height="11.9" style="fill:#f5f5f5"></rect><rect x="181.12" y="403.69" width="3.96" height="11.9" style="fill:#f5f5f5"></rect><rect x="186.84" y="403.69" width="3.96" height="11.9" style="fill:#f5f5f5"></rect><rect x="192.55" y="403.69" width="3.96" height="11.9" style="fill:#f5f5f5"></rect><rect x="198.27" y="403.69" width="3.96" height="11.9" style="fill:#f5f5f5"></rect><rect x="203.98" y="403.69" width="3.96" height="11.9" style="fill:#f5f5f5"></rect><rect x="209.7" y="403.69" width="3.96" height="11.9" style="fill:#f5f5f5"></rect><rect x="215.41" y="403.69" width="3.96" height="11.9" style="fill:#f5f5f5"></rect><rect x="221.13" y="403.69" width="3.96" height="11.9" style="fill:#f5f5f5"></rect><path d="M198.27,204.63a2.49,2.49,0,0,1-.08-.63c0-.41-.06-1-.08-1.8s0-1.73-.09-2.84a17.93,17.93,0,0,0-.5-3.68,13,13,0,0,0-1.92-4,8.8,8.8,0,0,0-3.93-3.16,19,19,0,0,0-5.58-1.14l-6.19-.53c-8.49-.74-16.18-1.21-21.76-1.32-2.79-.06-5,0-6.61,0h-1.79a4.4,4.4,0,0,1-.63,0,2.34,2.34,0,0,1,.62-.08l1.8-.11c1.56-.07,3.82-.14,6.61-.13,5.6,0,13.31.43,21.8,1.17l6.2.55a19.1,19.1,0,0,1,5.72,1.19,9.33,9.33,0,0,1,4.1,3.36,13.28,13.28,0,0,1,1.92,4.19,17.29,17.29,0,0,1,.43,3.77c0,1.12,0,2.07,0,2.85s0,1.33,0,1.8A3.07,3.07,0,0,1,198.27,204.63Z" style="fill:#e0e0e0"></path><path d="M176.46,204.63a2.16,2.16,0,0,1-.05-.59c0-.45,0-1,0-1.7s0-1.63-.09-2.66a8.36,8.36,0,0,0-.88-3.33,6.38,6.38,0,0,0-3.24-2.48,8.86,8.86,0,0,0-4.72-.48,7.84,7.84,0,0,0-2.44.83,4.7,4.7,0,0,0-1.89,1.78,2.57,2.57,0,0,0,0,2.52,3.36,3.36,0,0,0,2.13,1.6,2.71,2.71,0,0,0,2.5-.72,3.61,3.61,0,0,0,.38-4.82,5.33,5.33,0,0,0-1.9-1.67,6.74,6.74,0,0,0-2.36-.61c-.81-.12-1.6-.23-2.37-.32-1.53-.17-3-.27-4.27-.32-2.61-.11-4.74-.07-6.21-.07h-1.69a2.44,2.44,0,0,1-.59,0,2.49,2.49,0,0,1,.59-.07l1.69-.09c1.47-.06,3.59-.15,6.23-.09,1.31,0,2.76.11,4.3.26.77.08,1.57.18,2.38.29.41.07.82.12,1.25.2a4.46,4.46,0,0,1,1.27.44,5.81,5.81,0,0,1,2.08,1.81,4.09,4.09,0,0,1-.42,5.48,3.23,3.23,0,0,1-3,.86,3.87,3.87,0,0,1-2.47-1.86,3.07,3.07,0,0,1,0-3,5.12,5.12,0,0,1,2.1-2,8.37,8.37,0,0,1,2.6-.86,9.22,9.22,0,0,1,5,.55,6.69,6.69,0,0,1,3.4,2.7,8.28,8.28,0,0,1,.85,3.49,26.62,26.62,0,0,1,0,2.69c0,.68-.05,1.24-.07,1.69A4.07,4.07,0,0,1,176.46,204.63Z" style="fill:#e0e0e0"></path><path d="M204.14,204.63A3.56,3.56,0,0,1,204,204c-.07-.44-.2-1.09-.38-1.92a37.56,37.56,0,0,0-2.12-6.86,20.06,20.06,0,0,0-6.26-8.38,11.81,11.81,0,0,0-5.72-2.18,61.08,61.08,0,0,0-6.74-.36c-9.29-.17-17.71-.14-23.81-.38-3-.11-5.51-.26-7.21-.38l-2-.17a4.07,4.07,0,0,1-.68-.09,2.55,2.55,0,0,1,.68,0l2,.07c1.71.06,4.17.15,7.21.21,6.09.15,14.51.06,23.81.23a58.1,58.1,0,0,1,6.8.38,12.19,12.19,0,0,1,5.94,2.3,17.92,17.92,0,0,1,4,4.19,24.13,24.13,0,0,1,2.34,4.43,34.64,34.64,0,0,1,2,7c.15.84.24,1.5.29,1.94A4.38,4.38,0,0,1,204.14,204.63Z" style="fill:#e0e0e0"></path><rect x="154.79" y="166.3" width="69.92" height="10.15" style="fill:#e0e0e0"></rect><rect x="170.17" y="171.38" width="38.07" height="5.08" style="fill:#f5f5f5"></rect><rect x="414.98" y="163.07" width="84.76" height="259.65" style="fill:#ebebeb"></rect><rect x="499.48" y="163.07" width="66.99" height="258.82" style="fill:#f5f5f5"></rect><rect x="419.53" y="204.63" width="71.9" height="20.24" style="fill:#e0e0e0"></rect><rect x="421.54" y="207.17" width="4.03" height="15.49" style="fill:#f5f5f5"></rect><circle cx="429.03" cy="210.43" r="1.28" style="fill:#fafafa"></circle><circle cx="429.03" cy="215.9" r="1.28" style="fill:#fafafa"></circle><rect x="435.42" y="209.15" width="3.96" height="11.9" style="fill:#f5f5f5"></rect><rect x="441.14" y="209.15" width="3.96" height="11.9" style="fill:#f5f5f5"></rect><rect x="446.85" y="209.15" width="3.96" height="11.9" style="fill:#f5f5f5"></rect><rect x="452.57" y="209.15" width="3.96" height="11.9" style="fill:#f5f5f5"></rect><rect x="458.28" y="209.15" width="3.96" height="11.9" style="fill:#f5f5f5"></rect><rect x="464" y="209.15" width="3.96" height="11.9" style="fill:#f5f5f5"></rect><rect x="469.71" y="209.15" width="3.96" height="11.9" style="fill:#f5f5f5"></rect><rect x="475.43" y="209.15" width="3.96" height="11.9" style="fill:#f5f5f5"></rect><rect x="481.14" y="209.15" width="3.96" height="11.9" style="fill:#f5f5f5"></rect><rect x="486.86" y="209.15" width="3.96" height="11.9" style="fill:#f5f5f5"></rect><rect x="419.53" y="237.05" width="71.9" height="20.24" style="fill:#e0e0e0"></rect><rect x="421.54" y="239.6" width="4.03" height="15.49" style="fill:#f5f5f5"></rect><circle cx="429.03" cy="242.85" r="1.28" style="fill:#fafafa"></circle><circle cx="429.03" cy="248.33" r="1.28" style="fill:#fafafa"></circle><rect x="435.42" y="241.57" width="3.96" height="11.9" style="fill:#f5f5f5"></rect><rect x="441.14" y="241.57" width="3.96" height="11.9" style="fill:#f5f5f5"></rect><rect x="446.85" y="241.57" width="3.96" height="11.9" style="fill:#f5f5f5"></rect><rect x="452.57" y="241.57" width="3.96" height="11.9" style="fill:#f5f5f5"></rect><rect x="458.28" y="241.57" width="3.96" height="11.9" style="fill:#f5f5f5"></rect><rect x="464" y="241.57" width="3.96" height="11.9" style="fill:#f5f5f5"></rect><rect x="469.71" y="241.57" width="3.96" height="11.9" style="fill:#f5f5f5"></rect><rect x="475.43" y="241.57" width="3.96" height="11.9" style="fill:#f5f5f5"></rect><rect x="481.14" y="241.57" width="3.96" height="11.9" style="fill:#f5f5f5"></rect><rect x="486.86" y="241.57" width="3.96" height="11.9" style="fill:#f5f5f5"></rect><rect x="419.53" y="269.47" width="71.9" height="20.24" style="fill:#e0e0e0"></rect><rect x="421.54" y="272.02" width="4.03" height="15.49" style="fill:#f5f5f5"></rect><circle cx="429.03" cy="275.28" r="1.28" style="fill:#fafafa"></circle><path d="M430.31,280.75a1.28,1.28,0,1,1-1.28-1.28A1.28,1.28,0,0,1,430.31,280.75Z" style="fill:#fafafa"></path><rect x="435.42" y="274" width="3.96" height="11.9" style="fill:#f5f5f5"></rect><rect x="441.14" y="274" width="3.96" height="11.9" style="fill:#f5f5f5"></rect><rect x="446.85" y="274" width="3.96" height="11.9" style="fill:#f5f5f5"></rect><rect x="452.57" y="274" width="3.96" height="11.9" style="fill:#f5f5f5"></rect><rect x="458.28" y="274" width="3.96" height="11.9" style="fill:#f5f5f5"></rect><rect x="464" y="274" width="3.96" height="11.9" style="fill:#f5f5f5"></rect><rect x="469.71" y="274" width="3.96" height="11.9" style="fill:#f5f5f5"></rect><rect x="475.43" y="274" width="3.96" height="11.9" style="fill:#f5f5f5"></rect><rect x="481.14" y="274" width="3.96" height="11.9" style="fill:#f5f5f5"></rect><rect x="486.86" y="274" width="3.96" height="11.9" style="fill:#f5f5f5"></rect><rect x="419.53" y="301.9" width="71.9" height="20.24" style="fill:#e0e0e0"></rect><rect x="421.54" y="304.44" width="4.03" height="15.49" style="fill:#f5f5f5"></rect><circle cx="429.03" cy="307.7" r="1.28" style="fill:#fafafa"></circle><path d="M430.31,313.18a1.28,1.28,0,0,1-2.56,0,1.28,1.28,0,0,1,2.56,0Z" style="fill:#fafafa"></path><rect x="435.42" y="306.42" width="3.96" height="11.9" style="fill:#f5f5f5"></rect><rect x="441.14" y="306.42" width="3.96" height="11.9" style="fill:#f5f5f5"></rect><rect x="446.85" y="306.42" width="3.96" height="11.9" style="fill:#f5f5f5"></rect><rect x="452.57" y="306.42" width="3.96" height="11.9" style="fill:#f5f5f5"></rect><rect x="458.28" y="306.42" width="3.96" height="11.9" style="fill:#f5f5f5"></rect><rect x="464" y="306.42" width="3.96" height="11.9" style="fill:#f5f5f5"></rect><rect x="469.71" y="306.42" width="3.96" height="11.9" style="fill:#f5f5f5"></rect><rect x="475.43" y="306.42" width="3.96" height="11.9" style="fill:#f5f5f5"></rect><rect x="481.14" y="306.42" width="3.96" height="11.9" style="fill:#f5f5f5"></rect><rect x="486.86" y="306.42" width="3.96" height="11.9" style="fill:#f5f5f5"></rect><rect x="419.53" y="334.32" width="71.9" height="20.24" style="fill:#e0e0e0"></rect><rect x="421.54" y="336.87" width="4.03" height="15.49" style="fill:#f5f5f5"></rect><circle cx="429.03" cy="340.13" r="1.28" style="fill:#fafafa"></circle><path d="M430.31,345.6a1.28,1.28,0,1,1-1.28-1.28A1.28,1.28,0,0,1,430.31,345.6Z" style="fill:#fafafa"></path><rect x="435.42" y="338.85" width="3.96" height="11.9" style="fill:#f5f5f5"></rect><rect x="441.14" y="338.85" width="3.96" height="11.9" style="fill:#f5f5f5"></rect><rect x="446.85" y="338.85" width="3.96" height="11.9" style="fill:#f5f5f5"></rect><rect x="452.57" y="338.85" width="3.96" height="11.9" style="fill:#f5f5f5"></rect><rect x="458.28" y="338.85" width="3.96" height="11.9" style="fill:#f5f5f5"></rect><rect x="464" y="338.85" width="3.96" height="11.9" style="fill:#f5f5f5"></rect><rect x="469.71" y="338.85" width="3.96" height="11.9" style="fill:#f5f5f5"></rect><rect x="475.43" y="338.85" width="3.96" height="11.9" style="fill:#f5f5f5"></rect><rect x="481.14" y="338.85" width="3.96" height="11.9" style="fill:#f5f5f5"></rect><rect x="486.86" y="338.85" width="3.96" height="11.9" style="fill:#f5f5f5"></rect><rect x="419.53" y="366.74" width="71.9" height="20.24" style="fill:#e0e0e0"></rect><rect x="421.54" y="369.29" width="4.03" height="15.49" style="fill:#f5f5f5"></rect><circle cx="429.03" cy="372.55" r="1.28" style="fill:#fafafa"></circle><path d="M430.31,378a1.28,1.28,0,1,1-1.28-1.28A1.28,1.28,0,0,1,430.31,378Z" style="fill:#fafafa"></path><rect x="435.42" y="371.27" width="3.96" height="11.9" style="fill:#f5f5f5"></rect><rect x="441.14" y="371.27" width="3.96" height="11.9" style="fill:#f5f5f5"></rect><rect x="446.85" y="371.27" width="3.96" height="11.9" style="fill:#f5f5f5"></rect><rect x="452.57" y="371.27" width="3.96" height="11.9" style="fill:#f5f5f5"></rect><rect x="458.28" y="371.27" width="3.96" height="11.9" style="fill:#f5f5f5"></rect><rect x="464" y="371.27" width="3.96" height="11.9" style="fill:#f5f5f5"></rect><rect x="469.71" y="371.27" width="3.96" height="11.9" style="fill:#f5f5f5"></rect><rect x="475.43" y="371.27" width="3.96" height="11.9" style="fill:#f5f5f5"></rect><rect x="481.14" y="371.27" width="3.96" height="11.9" style="fill:#f5f5f5"></rect><rect x="486.86" y="371.27" width="3.96" height="11.9" style="fill:#f5f5f5"></rect><rect x="419.53" y="399.17" width="71.9" height="20.24" style="fill:#e0e0e0"></rect><rect x="421.54" y="401.71" width="4.03" height="15.49" style="fill:#f5f5f5"></rect><circle cx="429.03" cy="404.97" r="1.28" style="fill:#fafafa"></circle><path d="M430.31,410.45a1.28,1.28,0,0,1-2.56,0,1.28,1.28,0,0,1,2.56,0Z" style="fill:#fafafa"></path><rect x="435.42" y="403.69" width="3.96" height="11.9" style="fill:#f5f5f5"></rect><rect x="441.14" y="403.69" width="3.96" height="11.9" style="fill:#f5f5f5"></rect><rect x="446.85" y="403.69" width="3.96" height="11.9" style="fill:#f5f5f5"></rect><rect x="452.57" y="403.69" width="3.96" height="11.9" style="fill:#f5f5f5"></rect><rect x="458.28" y="403.69" width="3.96" height="11.9" style="fill:#f5f5f5"></rect><rect x="464" y="403.69" width="3.96" height="11.9" style="fill:#f5f5f5"></rect><rect x="469.71" y="403.69" width="3.96" height="11.9" style="fill:#f5f5f5"></rect><rect x="475.43" y="403.69" width="3.96" height="11.9" style="fill:#f5f5f5"></rect><rect x="481.14" y="403.69" width="3.96" height="11.9" style="fill:#f5f5f5"></rect><rect x="486.86" y="403.69" width="3.96" height="11.9" style="fill:#f5f5f5"></rect><path d="M464,204.63a2.49,2.49,0,0,1-.08-.63c0-.41-.06-1-.08-1.8s0-1.73-.09-2.84a17.93,17.93,0,0,0-.5-3.68,13,13,0,0,0-1.92-4,8.86,8.86,0,0,0-3.93-3.16,19,19,0,0,0-5.58-1.14l-6.19-.53c-8.49-.74-16.18-1.21-21.76-1.32-2.79-.06-5.05,0-6.61,0h-1.79a4.27,4.27,0,0,1-.63,0,2.34,2.34,0,0,1,.62-.08l1.8-.11c1.56-.07,3.82-.14,6.61-.13,5.59,0,13.31.43,21.8,1.17l6.2.55a19.1,19.1,0,0,1,5.72,1.19,9.33,9.33,0,0,1,4.1,3.36,13.28,13.28,0,0,1,1.92,4.19,17.29,17.29,0,0,1,.43,3.77c0,1.12,0,2.07,0,2.85s0,1.33,0,1.8A3.07,3.07,0,0,1,464,204.63Z" style="fill:#e0e0e0"></path><path d="M442.18,204.63a3.49,3.49,0,0,1,0-.59c0-.45,0-1,0-1.7s0-1.63-.09-2.66a8.36,8.36,0,0,0-.88-3.33,6.38,6.38,0,0,0-3.24-2.48,8.89,8.89,0,0,0-4.73-.48,7.87,7.87,0,0,0-2.43.83,4.63,4.63,0,0,0-1.89,1.78,2.57,2.57,0,0,0,0,2.52,3.36,3.36,0,0,0,2.13,1.6,2.71,2.71,0,0,0,2.5-.72,3.61,3.61,0,0,0,.38-4.82,5.33,5.33,0,0,0-1.9-1.67,6.74,6.74,0,0,0-2.36-.61c-.82-.12-1.6-.23-2.37-.32-1.53-.17-3-.27-4.27-.32-2.61-.11-4.74-.07-6.21-.07h-1.69a2.44,2.44,0,0,1-.59,0,2.49,2.49,0,0,1,.59-.07l1.69-.09c1.47-.06,3.59-.15,6.23-.09,1.31,0,2.76.11,4.3.26.77.08,1.56.18,2.38.29.41.07.82.12,1.25.2a4.46,4.46,0,0,1,1.27.44,5.81,5.81,0,0,1,2.08,1.81,4.12,4.12,0,0,1,.85,2.77,4.2,4.2,0,0,1-1.27,2.71,3.23,3.23,0,0,1-3,.86,3.92,3.92,0,0,1-2.48-1.86,3.1,3.1,0,0,1,0-3,5.12,5.12,0,0,1,2.1-2,8.4,8.4,0,0,1,2.59-.86,9.25,9.25,0,0,1,5,.55,6.69,6.69,0,0,1,3.4,2.7,8.28,8.28,0,0,1,.85,3.49,26.62,26.62,0,0,1,0,2.69c0,.68-.05,1.24-.07,1.69A2.36,2.36,0,0,1,442.18,204.63Z" style="fill:#e0e0e0"></path><path d="M469.87,204.63a3.56,3.56,0,0,1-.16-.67c-.08-.44-.2-1.09-.38-1.92a37.74,37.74,0,0,0-2.13-6.86A20,20,0,0,0,461,186.8a11.81,11.81,0,0,0-5.72-2.18,61.08,61.08,0,0,0-6.74-.36c-9.29-.17-17.72-.14-23.81-.38-3-.11-5.51-.26-7.21-.38l-2-.17a4.07,4.07,0,0,1-.68-.09,2.51,2.51,0,0,1,.68,0l2,.07c1.71.06,4.17.15,7.21.21,6.09.15,14.51.06,23.81.23a58.1,58.1,0,0,1,6.8.38,12.19,12.19,0,0,1,5.94,2.3,17.92,17.92,0,0,1,4,4.19,24.13,24.13,0,0,1,2.34,4.43,34.64,34.64,0,0,1,2,7c.15.84.24,1.5.29,1.94A4.38,4.38,0,0,1,469.87,204.63Z" style="fill:#e0e0e0"></path><rect x="420.52" y="166.3" width="69.92" height="10.15" style="fill:#e0e0e0"></rect><rect x="435.9" y="171.38" width="38.07" height="5.08" style="fill:#f5f5f5"></rect></g><g id="freepik--Floor--inject-30"><path d="M688.3,422.4c0,.14-141.44.26-315.89.26s-315.92-.12-315.92-.26,141.42-.26,315.92-.26S688.3,422.25,688.3,422.4Z" style="fill:#263238"></path></g><g id="freepik--Server--inject-30"><rect x="244.1" y="126.22" width="96.61" height="295.95" style="fill:#ebebeb"></rect><rect x="340.58" y="126.22" width="76.36" height="295" style="fill:#e0e0e0"></rect><rect x="249.45" y="273.59" width="81.95" height="23.07" style="fill:#263238"></rect><rect x="249.45" y="173.58" width="81.95" height="23.07" style="fill:#263238"></rect><rect x="251.74" y="176.48" width="4.59" height="17.66" style="fill:#455a64"></rect><path d="M261.73,180.2a1.46,1.46,0,1,1-1.46-1.46A1.46,1.46,0,0,1,261.73,180.2Z" style="fill:#fff"></path><path d="M261.73,186.44a1.46,1.46,0,1,1-1.46-1.46A1.46,1.46,0,0,1,261.73,186.44Z" style="fill:#fff"></path><rect x="267.56" y="178.74" width="4.51" height="13.56" style="fill:#455a64"></rect><rect x="274.08" y="178.74" width="4.51" height="13.56" style="fill:#455a64"></rect><rect x="280.59" y="178.74" width="4.51" height="13.56" style="fill:#455a64"></rect><rect x="287.1" y="178.74" width="4.51" height="13.56" style="fill:#455a64"></rect><rect x="293.62" y="178.74" width="4.51" height="13.56" style="fill:#455a64"></rect><rect x="300.13" y="178.74" width="4.51" height="13.56" style="fill:#455a64"></rect><rect x="306.65" y="178.74" width="4.51" height="13.56" style="fill:#455a64"></rect><rect x="313.16" y="178.74" width="4.51" height="13.56" style="fill:#455a64"></rect><rect x="319.67" y="178.74" width="4.51" height="13.56" style="fill:#455a64"></rect><rect x="326.19" y="178.74" width="4.51" height="13.56" style="fill:#455a64"></rect><rect x="249.45" y="206.73" width="81.95" height="23.07" style="fill:#263238"></rect><rect x="251.74" y="209.63" width="4.59" height="17.66" style="fill:#455a64"></rect><path d="M261.73,213.34a1.46,1.46,0,1,1-1.46-1.45A1.46,1.46,0,0,1,261.73,213.34Z" style="fill:#fff"></path><path d="M261.73,219.58a1.46,1.46,0,1,1-1.46-1.46A1.46,1.46,0,0,1,261.73,219.58Z" style="fill:#fff"></path><rect x="267.56" y="211.89" width="4.51" height="13.56" style="fill:#455a64"></rect><rect x="274.08" y="211.89" width="4.51" height="13.56" style="fill:#455a64"></rect><rect x="280.59" y="211.89" width="4.51" height="13.56" style="fill:#455a64"></rect><rect x="287.1" y="211.89" width="4.51" height="13.56" style="fill:#455a64"></rect><rect x="293.62" y="211.89" width="4.51" height="13.56" style="fill:#455a64"></rect><rect x="300.13" y="211.89" width="4.51" height="13.56" style="fill:#455a64"></rect><rect x="306.65" y="211.89" width="4.51" height="13.56" style="fill:#455a64"></rect><rect x="313.16" y="211.89" width="4.51" height="13.56" style="fill:#455a64"></rect><rect x="319.67" y="211.89" width="4.51" height="13.56" style="fill:#455a64"></rect><rect x="326.19" y="211.89" width="4.51" height="13.56" style="fill:#455a64"></rect><rect x="249.45" y="240.14" width="81.95" height="23.07" style="fill:#263238"></rect><rect x="251.74" y="243.04" width="4.59" height="17.66" style="fill:#455a64"></rect><path d="M261.73,246.75a1.46,1.46,0,1,1-1.46-1.45A1.46,1.46,0,0,1,261.73,246.75Z" style="fill:#fff"></path><path d="M261.73,253a1.46,1.46,0,1,1-1.46-1.45A1.46,1.46,0,0,1,261.73,253Z" style="fill:#fff"></path><rect x="267.56" y="245.3" width="4.51" height="13.56" style="fill:#455a64"></rect><rect x="274.08" y="245.3" width="4.51" height="13.56" style="fill:#455a64"></rect><rect x="280.59" y="245.3" width="4.51" height="13.56" style="fill:#455a64"></rect><rect x="287.1" y="245.3" width="4.51" height="13.56" style="fill:#455a64"></rect><rect x="293.62" y="245.3" width="4.51" height="13.56" style="fill:#455a64"></rect><rect x="300.13" y="245.3" width="4.51" height="13.56" style="fill:#455a64"></rect><rect x="306.65" y="245.3" width="4.51" height="13.56" style="fill:#455a64"></rect><rect x="313.16" y="245.3" width="4.51" height="13.56" style="fill:#455a64"></rect><rect x="319.67" y="245.3" width="4.51" height="13.56" style="fill:#455a64"></rect><rect x="326.19" y="245.3" width="4.51" height="13.56" style="fill:#455a64"></rect><rect x="249.45" y="312.68" width="81.95" height="23.07" style="fill:#263238"></rect><rect x="251.74" y="315.58" width="4.59" height="17.66" style="fill:#455a64"></rect><path d="M261.73,319.3a1.46,1.46,0,1,1-1.46-1.46A1.45,1.45,0,0,1,261.73,319.3Z" style="fill:#fff"></path><path d="M261.73,325.54a1.46,1.46,0,1,1-1.46-1.46A1.45,1.45,0,0,1,261.73,325.54Z" style="fill:#fff"></path><rect x="267.56" y="317.84" width="4.51" height="13.56" style="fill:#455a64"></rect><rect x="274.08" y="317.84" width="4.51" height="13.56" style="fill:#455a64"></rect><rect x="280.59" y="317.84" width="4.51" height="13.56" style="fill:#455a64"></rect><rect x="287.1" y="317.84" width="4.51" height="13.56" style="fill:#455a64"></rect><rect x="293.62" y="317.84" width="4.51" height="13.56" style="fill:#455a64"></rect><rect x="300.13" y="317.84" width="4.51" height="13.56" style="fill:#455a64"></rect><rect x="306.65" y="317.84" width="4.51" height="13.56" style="fill:#455a64"></rect><rect x="313.16" y="317.84" width="4.51" height="13.56" style="fill:#455a64"></rect><rect x="319.67" y="317.84" width="4.51" height="13.56" style="fill:#455a64"></rect><rect x="326.19" y="317.84" width="4.51" height="13.56" style="fill:#455a64"></rect><rect x="249.45" y="385.22" width="81.95" height="23.07" style="fill:#263238"></rect><rect x="251.74" y="388.12" width="4.59" height="17.66" style="fill:#455a64"></rect><path d="M261.73,391.84a1.46,1.46,0,1,1-1.46-1.46A1.46,1.46,0,0,1,261.73,391.84Z" style="fill:#fff"></path><path d="M261.73,398.08a1.46,1.46,0,1,1-1.46-1.46A1.46,1.46,0,0,1,261.73,398.08Z" style="fill:#fff"></path><rect x="267.56" y="390.38" width="4.51" height="13.56" style="fill:#455a64"></rect><rect x="274.08" y="390.38" width="4.51" height="13.56" style="fill:#455a64"></rect><rect x="280.59" y="390.38" width="4.51" height="13.56" style="fill:#455a64"></rect><rect x="287.1" y="390.38" width="4.51" height="13.56" style="fill:#455a64"></rect><rect x="293.62" y="390.38" width="4.51" height="13.56" style="fill:#455a64"></rect><rect x="300.13" y="390.38" width="4.51" height="13.56" style="fill:#455a64"></rect><rect x="306.65" y="390.38" width="4.51" height="13.56" style="fill:#455a64"></rect><rect x="313.16" y="390.38" width="4.51" height="13.56" style="fill:#455a64"></rect><rect x="319.67" y="390.38" width="4.51" height="13.56" style="fill:#455a64"></rect><rect x="326.19" y="390.38" width="4.51" height="13.56" style="fill:#455a64"></rect><rect x="249.45" y="348.98" width="81.95" height="23.07" style="fill:#263238"></rect><rect x="251.74" y="351.88" width="4.59" height="17.66" style="fill:#455a64"></rect><path d="M261.73,355.6a1.46,1.46,0,1,1-1.46-1.46A1.46,1.46,0,0,1,261.73,355.6Z" style="fill:#fff"></path><path d="M261.73,361.84a1.46,1.46,0,1,1-1.46-1.46A1.46,1.46,0,0,1,261.73,361.84Z" style="fill:#fff"></path><rect x="267.56" y="354.14" width="4.51" height="13.56" style="fill:#455a64"></rect><rect x="274.08" y="354.14" width="4.51" height="13.56" style="fill:#455a64"></rect><rect x="280.59" y="354.14" width="4.51" height="13.56" style="fill:#455a64"></rect><rect x="287.1" y="354.14" width="4.51" height="13.56" style="fill:#455a64"></rect><rect x="293.62" y="354.14" width="4.51" height="13.56" style="fill:#455a64"></rect><rect x="300.13" y="354.14" width="4.51" height="13.56" style="fill:#455a64"></rect><rect x="306.65" y="354.14" width="4.51" height="13.56" style="fill:#455a64"></rect><rect x="313.16" y="354.14" width="4.51" height="13.56" style="fill:#455a64"></rect><rect x="319.67" y="354.14" width="4.51" height="13.56" style="fill:#455a64"></rect><rect x="326.19" y="354.14" width="4.51" height="13.56" style="fill:#455a64"></rect><path d="M300.13,173.58a4,4,0,0,1-.08-.71c0-.47-.06-1.16-.08-2.05s0-2-.1-3.24a20.53,20.53,0,0,0-.56-4.21,15,15,0,0,0-2.19-4.61,10.28,10.28,0,0,0-4.49-3.62,21.78,21.78,0,0,0-6.37-1.29l-7.06-.61c-9.67-.84-18.45-1.38-24.8-1.49-3.18-.07-5.76-.05-7.53,0l-2.05,0a3.07,3.07,0,0,1-.72,0,3.16,3.16,0,0,1,.71-.08l2.05-.12c1.78-.07,4.36-.15,7.54-.13,6.37,0,15.17.5,24.84,1.34l7.07.62a21.86,21.86,0,0,1,6.5,1.36,10.61,10.61,0,0,1,4.66,3.81,15.21,15.21,0,0,1,2.2,4.77,20.52,20.52,0,0,1,.49,4.29c0,1.27,0,2.36,0,3.25s0,1.53,0,2.05A3.83,3.83,0,0,1,300.13,173.58Z" style="fill:#263238"></path><path d="M275.27,173.58a3.5,3.5,0,0,1,0-.67l0-1.93c0-.83,0-1.86-.09-3a9.42,9.42,0,0,0-1-3.8,7.33,7.33,0,0,0-3.7-2.85,10.15,10.15,0,0,0-5.4-.55,9.22,9.22,0,0,0-2.79.95,5.29,5.29,0,0,0-2.17,2.05,2.92,2.92,0,0,0,0,2.89,3.86,3.86,0,0,0,2.46,1.85,3.13,3.13,0,0,0,2.88-.83,4.33,4.33,0,0,0,1.29-2.74,4.17,4.17,0,0,0-.86-2.8,6.12,6.12,0,0,0-2.17-1.92,8.08,8.08,0,0,0-2.71-.69q-1.4-.21-2.7-.36c-1.74-.2-3.37-.31-4.86-.37-3-.11-5.41-.07-7.09-.07h-1.92a4,4,0,0,1-.68,0,3.23,3.23,0,0,1,.67-.07l1.93-.1c1.67-.06,4.1-.17,7.1-.1,1.5,0,3.14.13,4.9.31.88.09,1.78.2,2.72.33.46.08.93.14,1.42.23a5.14,5.14,0,0,1,1.44.5,6.59,6.59,0,0,1,2.35,2,4.6,4.6,0,0,1,1,3.13,4.73,4.73,0,0,1-1.44,3.08,3.66,3.66,0,0,1-3.35,1,4.39,4.39,0,0,1-2.79-2.1,3.44,3.44,0,0,1,0-3.39,5.78,5.78,0,0,1,2.38-2.25,9.76,9.76,0,0,1,2.95-1,10.55,10.55,0,0,1,5.63.62,7.58,7.58,0,0,1,3.87,3.07,9.55,9.55,0,0,1,1,4c.06,1.2,0,2.23,0,3.06s0,1.44-.07,1.93A2.94,2.94,0,0,1,275.27,173.58Z" style="fill:#263238"></path><path d="M306.82,173.58a4.16,4.16,0,0,1-.16-.76c-.09-.5-.23-1.24-.43-2.19a43.31,43.31,0,0,0-2.42-7.82,22.7,22.7,0,0,0-7.13-9.57,13.41,13.41,0,0,0-6.54-2.49,68,68,0,0,0-7.68-.42c-10.59-.2-20.19-.15-27.14-.42-3.47-.12-6.28-.29-8.21-.42l-2.23-.19a4.5,4.5,0,0,1-.78-.1,3.86,3.86,0,0,1,.78,0l2.24.08c1.94.08,4.74.19,8.21.26,6.94.17,16.53.07,27.14.27a67.72,67.72,0,0,1,7.75.43,14,14,0,0,1,6.75,2.61,20.62,20.62,0,0,1,4.51,4.77,27.54,27.54,0,0,1,2.67,5,39.29,39.29,0,0,1,2.27,7.92c.18,1,.28,1.7.34,2.21A3.81,3.81,0,0,1,306.82,173.58Z" style="fill:#263238"></path><rect x="250.58" y="129.9" width="79.7" height="11.57" style="fill:#263238"></rect><rect x="268.11" y="135.68" width="43.39" height="5.78" style="fill:#455a64"></rect><path d="M362.79,369.85c0,.06-.88.14-2.41.59a21,21,0,0,0-6,2.95,17,17,0,0,0-3.38,3.14,11.75,11.75,0,0,0-1.39,2.14,15.21,15.21,0,0,0-.87,2.57c-.91,3.66-.63,7.84-.45,12.2s-.11,8.7-1.83,12.19a13.48,13.48,0,0,1-3.25,4.34,15.87,15.87,0,0,1-4,2.54,15.48,15.48,0,0,1-3.73,1.11,13.38,13.38,0,0,1-2.94.13,9.84,9.84,0,0,1-1.83-.29,2.87,2.87,0,0,1-.62-.19c0-.06.87.21,2.46.28a14.85,14.85,0,0,0,2.88-.21,15.5,15.5,0,0,0,3.63-1.17,15.32,15.32,0,0,0,3.85-2.52,13.17,13.17,0,0,0,3.11-4.23c1.64-3.39,1.92-7.63,1.74-12s-.45-8.59.51-12.33a14.65,14.65,0,0,1,.92-2.66,12,12,0,0,1,1.47-2.21,16.24,16.24,0,0,1,3.5-3.17,19.59,19.59,0,0,1,6.18-2.85,12.25,12.25,0,0,1,1.82-.34A2.81,2.81,0,0,1,362.79,369.85Z" style="fill:#263238"></path><rect x="326.05" y="409.7" width="6.54" height="7.96" style="fill:#263238"></rect><rect x="362.79" y="349.75" width="36.69" height="40.2" style="fill:#455a64"></rect><circle cx="381.14" cy="370.01" r="12.08" transform="matrix(0.23, -0.97, 0.97, 0.23, -66.89, 655.39)" style="fill:#263238"></circle><path d="M387.17,370a6,6,0,1,1-6-6A6,6,0,0,1,387.17,370Z" style="fill:#455a64"></path><circle cx="367.75" cy="355.99" r="1.12" style="fill:#263238"></circle><circle cx="393.87" cy="355.99" r="1.12" style="fill:#263238"></circle><circle cx="394.11" cy="385.67" r="1.12" style="fill:#263238"></circle><circle cx="367.75" cy="386.13" r="1.12" style="fill:#263238"></circle><rect x="399.48" y="349.75" width="2.96" height="40.2" style="fill:#263238"></rect><path d="M506.38,386.91a3.61,3.61,0,0,1,.26.38c.18.28.42.67.74,1.16a14.74,14.74,0,0,1,1,2,19.44,19.44,0,0,1,1.1,2.84,26.78,26.78,0,0,1,1.16,8.26,28.13,28.13,0,0,1-2.39,10.77c-.22.47-.43.94-.65,1.42l-.79,1.39a27.33,27.33,0,0,1-1.84,2.74,23.57,23.57,0,0,1-5.07,4.82l-.74.54-.8.45c-.54.29-1.07.64-1.64.89l-1.75.75c-.58.26-1.21.39-1.82.6a25.34,25.34,0,0,1-7.88,1,29.45,29.45,0,0,1-8.22-1.39,28,28,0,0,1-7.74-4,23.22,23.22,0,0,1-6.13-6.61,73.77,73.77,0,0,1-4-8.35,24.36,24.36,0,0,0-4.89-7.66,12.05,12.05,0,0,0-3.68-2.42,13,13,0,0,0-4.24-.93c-5.78-.33-11.5,3-13.45,8a9.17,9.17,0,0,0-.57,3.83,5.51,5.51,0,0,0,1.37,3.39A4.08,4.08,0,0,0,437,412a5.67,5.67,0,0,0,3.21-1.31,7.61,7.61,0,0,0,2.35-6.11,13.87,13.87,0,0,0-1.64-6.06,15.2,15.2,0,0,0-21-6.1c-1,.6-1.53,1-1.55,1a10.11,10.11,0,0,1,1.5-1.07,14.89,14.89,0,0,1,4.92-1.88,15.35,15.35,0,0,1,8.27.63,15.63,15.63,0,0,1,8.16,7.27,14.33,14.33,0,0,1,1.71,6.22,9.69,9.69,0,0,1-.48,3.43,6.64,6.64,0,0,1-2,3,6.05,6.05,0,0,1-3.46,1.42,4.54,4.54,0,0,1-3.61-1.36,6,6,0,0,1-1.51-3.68,9.62,9.62,0,0,1,.59-4c2-5.23,7.95-8.64,13.92-8.32a13.34,13.34,0,0,1,4.42,1,12.29,12.29,0,0,1,3.84,2.52,24.86,24.86,0,0,1,5,7.82,73.74,73.74,0,0,0,4,8.29,22.64,22.64,0,0,0,6,6.47,27.68,27.68,0,0,0,7.58,3.94,28.91,28.91,0,0,0,8.09,1.38,24.68,24.68,0,0,0,7.73-1,17.85,17.85,0,0,0,1.79-.59l1.72-.72c.56-.25,1.07-.59,1.61-.87l.79-.44.73-.52a23.94,23.94,0,0,0,5-4.71,28.39,28.39,0,0,0,1.82-2.7l.79-1.36c.21-.47.43-.94.64-1.4a27.83,27.83,0,0,0,2.43-10.63,27,27,0,0,0-1.05-8.19,21.52,21.52,0,0,0-1.05-2.84,15.41,15.41,0,0,0-1-2c-.3-.5-.52-.9-.69-1.18Z" style="fill:#263238"></path><rect x="498.48" y="375.05" width="19.01" height="19.01" style="fill:#263238"></rect><rect x="425.91" y="221.98" width="64.75" height="47.61" style="fill:#fff"></rect><path d="M490.66,269.59s0-.31,0-.88,0-1.44,0-2.54c0-2.24,0-5.49-.06-9.63,0-8.3-.06-20.17-.11-34.56l.22.21-64.75.05h0l.26-.26c0,17.09,0,33.29,0,47.61l-.23-.23,46.67.11,13.3.07,3.54,0,.92,0h.32a1.36,1.36,0,0,1-.3,0l-.89,0-3.49,0-13.24.06-46.83.12h-.24v-.24c0-14.32,0-30.52,0-47.61v-.26h.26l64.75.05h.21V222c-.05,14.45-.09,26.37-.11,34.7,0,4.12,0,7.35-.06,9.57,0,1.08,0,1.92,0,2.5S490.66,269.59,490.66,269.59Z" style="fill:#263238"></path><path d="M442.67,237c-.06.18,1.49,21.14,1.49,20.9s29.38,0,29.38,0l.36-18.57H452l-1-2.58Z" style="fill:#BA68C8"></path><path d="M490.07,237s.06,0,.18,0l.54,0,2.12,0,7.95-.07,12.2-.05h3.62c1.23,0,2.52,0,3.78-.08a5.27,5.27,0,0,0,3.37-1.61,5.39,5.39,0,0,0,1.21-3.69v0c0-7.24,0-15.19,0-23.52,0-17.14.05-32.65.07-43.92,0-5.59.06-10.13.08-13.3,0-1.55,0-2.76.05-3.62,0-.39,0-.7,0-.94a1.34,1.34,0,0,1,0-.32s0,.11,0,.32,0,.55,0,.94c0,.87,0,2.08,0,3.62,0,3.18,0,7.72.08,13.31,0,11.27,0,26.78.08,43.91,0,8.33,0,16.28,0,23.51h0a5.86,5.86,0,0,1-1.34,4,5.76,5.76,0,0,1-3.67,1.76c-1.34.11-2.59,0-3.83,0h-3.62l-12.2-.05-7.95-.07-2.12,0-.54,0Z" style="fill:#263238"></path><path d="M425.91,251.33l-.24,0-.69,0-2.64,0-9.74,0-14.43,0-8.53,0a7.18,7.18,0,0,1-4.43-1.19,5.47,5.47,0,0,1-2-4.24,3.69,3.69,0,0,1,0-.47v0c0-6.22,0-12.14,0-17.52,0-2.69,0-5.25,0-7.64,0-1.2,0-2.36,0-3.46a7.2,7.2,0,0,0-.65-3,3,3,0,0,0-2.24-1.42,15.32,15.32,0,0,1-2.57-.42,3,3,0,0,1-1.55-1.68,6.67,6.67,0,0,1-.43-1.87,12.51,12.51,0,0,1,0-2.63c0-.3.08-.52.1-.67a.62.62,0,0,1,.07-.23s0,.32-.06.91a13.63,13.63,0,0,0,0,2.6,6.85,6.85,0,0,0,.46,1.79,2.71,2.71,0,0,0,1.43,1.51,15.17,15.17,0,0,0,2.52.37,4.87,4.87,0,0,1,1.38.46,2.82,2.82,0,0,1,1.12,1.1,7.67,7.67,0,0,1,.73,3.16c.1,1.12.07,2.27.08,3.47,0,2.4,0,5,0,7.65,0,5.39,0,11.31,0,17.54h0V246a4.92,4.92,0,0,0,1.84,3.84,6.61,6.61,0,0,0,4.12,1.1l8.53,0,14.43.13,9.74.14,2.65.06.68,0Z" style="fill:#263238"></path><path d="M378.15,204a2.13,2.13,0,1,1-2.13-2.12A2.12,2.12,0,0,1,378.15,204Z" style="fill:#263238"></path><path d="M425.91,245.14a4.69,4.69,0,0,1-.77.05l-2.22.05-8.2.08-12.25.05h-3.56a28.07,28.07,0,0,1-3.75-.11,5.5,5.5,0,0,1-3.5-1.85,5.87,5.87,0,0,1-1.22-3.92v-3.18c0-5.76,0-11.26,0-16.26,0-2.5,0-4.87,0-7.09a21.84,21.84,0,0,0-.16-3.19,3.86,3.86,0,0,0-1.08-2.55,4.37,4.37,0,0,0-2.39-.86,4.33,4.33,0,0,1-2.37-.59,3.28,3.28,0,0,1-1.19-1.77,7.65,7.65,0,0,1-.32-1.76,12.41,12.41,0,0,1,.08-2.44,3.34,3.34,0,0,1,.16-.84s0,.29,0,.85a13.94,13.94,0,0,0,0,2.41,7,7,0,0,0,.34,1.7,3.09,3.09,0,0,0,1.13,1.61,4.07,4.07,0,0,0,2.23.5,4.74,4.74,0,0,1,2.61.91,4.3,4.3,0,0,1,1.23,2.77,21.33,21.33,0,0,1,.19,3.23q0,3.35,0,7.1c0,5,0,10.5,0,16.27v3.23a5.29,5.29,0,0,0,1.1,3.54,5,5,0,0,0,3.18,1.68,28.08,28.08,0,0,0,3.67.13h3.56l12.25.05,8.2.08,2.22.05A4.69,4.69,0,0,1,425.91,245.14Z" style="fill:#263238"></path><circle cx="383.3" cy="197.94" r="2.12" style="fill:#263238"></circle><polygon points="425.91 221.98 425.91 229.11 490.66 228.29 490.66 221.98 425.91 221.98" style="fill:#455a64"></polygon></g><g id="freepik--Robot--inject-30"><path d="M122.31,262.83c.31.24,40.94,5.08,37.52,12.8s-39.26,4.79-39.26,4.79Z" style="fill:#BA68C8"></path><path d="M122.31,262.83c.31.24,40.94,5.08,37.52,12.8s-39.26,4.79-39.26,4.79Z" style="opacity:0.30000000000000004"></path><rect x="122.38" y="271.74" width="81.95" height="23.07" style="fill:#455a64"></rect><rect x="124.67" y="274.64" width="4.59" height="17.66" style="fill:#263238"></rect><path d="M134.67,278.35a1.46,1.46,0,1,1-1.46-1.45A1.46,1.46,0,0,1,134.67,278.35Z" style="fill:#fff"></path><path d="M134.67,284.59a1.46,1.46,0,1,1-1.46-1.45A1.46,1.46,0,0,1,134.67,284.59Z" style="fill:#fff"></path><rect x="140.5" y="276.9" width="4.51" height="13.56" style="fill:#263238"></rect><rect x="147.01" y="276.9" width="4.51" height="13.56" style="fill:#263238"></rect><rect x="153.52" y="276.9" width="4.51" height="13.56" style="fill:#263238"></rect><rect x="160.04" y="276.9" width="4.51" height="13.56" style="fill:#263238"></rect><rect x="166.55" y="276.9" width="4.51" height="13.56" style="fill:#263238"></rect><rect x="173.07" y="276.9" width="4.51" height="13.56" style="fill:#263238"></rect><rect x="179.58" y="276.9" width="4.51" height="13.56" style="fill:#263238"></rect><rect x="186.09" y="276.9" width="4.51" height="13.56" style="fill:#263238"></rect><rect x="192.61" y="276.9" width="4.51" height="13.56" style="fill:#263238"></rect><rect x="199.12" y="276.9" width="4.51" height="13.56" style="fill:#263238"></rect><rect x="204.34" y="271.74" width="13.32" height="23.07" style="fill:#263238"></rect><path d="M215.94,286c7.62,4,5.53,13.23,9.66,19.48a13.28,13.28,0,0,0,10.81,5.79,15,15,0,0,0,12.12-6.26c3.79-5.12,6.77-19.74,16.43-14.78.28.15.54-.28.25-.43-10.88-5.59-14.37,13.53-20.12,17.94a13.41,13.41,0,0,1-14.88,1.35c-4.34-2.46-5.77-6.79-6.87-11.33-1.18-4.89-2.38-9.7-7.15-12.19-.29-.15-.54.29-.25.43Z" style="fill:#263238"></path><path d="M123.59,263.85c.39.31-1.28,56.74-25.31,56.72-24.28,0-30.11-51.38-27.9-55.64C73.76,258.43,102.25,246.2,123.59,263.85Z" style="fill:#BA68C8"></path><path d="M69.26,264.26a2.27,2.27,0,0,1,.56.16l1.54.55c.66.26,1.48.56,2.44.85s2,.69,3.28,1,2.57.71,4,1,3,.59,4.68.88a80.61,80.61,0,0,0,10.87.85,81.21,81.21,0,0,0,10.87-.76c1.66-.27,3.24-.5,4.69-.84s2.81-.64,4-1,2.32-.68,3.28-1,1.79-.58,2.46-.82l1.54-.55a2.47,2.47,0,0,1,.56-.15,3.32,3.32,0,0,1-.52.25l-1.51.64c-.66.27-1.47.6-2.43.91s-2,.72-3.28,1-2.58.74-4,1-3,.61-4.71.89a75.69,75.69,0,0,1-10.94.81,76.49,76.49,0,0,1-10.94-.9c-1.67-.3-3.25-.56-4.71-.93s-2.81-.71-4-1.07-2.31-.75-3.27-1.08-1.77-.64-2.43-.93l-1.5-.64A3.83,3.83,0,0,1,69.26,264.26Z" style="fill:#fff"></path><g style="opacity:0.30000000000000004"><path d="M75.89,260.2c4.91,6.27,12.52,8.25,20.48,8.3s15.5-2.58,20.49-8.79c0,0-6-5.79-20.79-5.77A34.79,34.79,0,0,0,75.89,260.2Z"></path></g><path d="M97.64,319.66a2,2,0,0,1-.48-.24,7.94,7.94,0,0,1-1.2-.94,11.26,11.26,0,0,1-2.89-4.78,24.59,24.59,0,0,1-.8-8.26c.13-3.12.27-6.53.43-10.12.32-7.18.63-13.67.89-18.37.14-2.29.25-4.18.33-5.57,0-.6.09-1.1.12-1.51a1.71,1.71,0,0,1,.08-.52,3.06,3.06,0,0,1,0,.53c0,.4,0,.9,0,1.51,0,1.4-.1,3.28-.17,5.58-.16,4.7-.42,11.2-.74,18.37-.17,3.59-.33,7-.47,10.11a24.78,24.78,0,0,0,.67,8.14,11.75,11.75,0,0,0,2.68,4.75A16.55,16.55,0,0,0,97.64,319.66Z" style="fill:#fff"></path><path d="M94.64,306.7s.26-.33.83-.19a1.16,1.16,0,0,1,.76.64,1.09,1.09,0,0,1-.27,1.22,1,1,0,0,1-1.24.21,1,1,0,0,1-.48-.9.81.81,0,0,1,.25-.61c.12-.1.22-.1.23-.08s-.2.27-.12.67a.72.72,0,0,0,.34.5.62.62,0,0,0,.66-.16.68.68,0,0,0-.26-1.14C95,306.67,94.67,306.78,94.64,306.7Z" style="fill:#fff"></path><path d="M96.11,298.37s0-.1.18-.13a.67.67,0,0,1,.57.18.89.89,0,0,1,.29.87.92.92,0,0,1-.94.64,1,1,0,0,1-.94-.6,1.1,1.1,0,0,1,0-.88c.22-.45.56-.52.58-.46s-.16.24-.24.59a.62.62,0,0,0,.58.83.48.48,0,0,0,.47-.26.53.53,0,0,0-.1-.48C96.4,298.39,96.14,298.44,96.11,298.37Z" style="fill:#fff"></path><path d="M93.08,293.9s13.77,7.79,24.89,5.77l.83-2.47s-16.35-1.62-25.72-4.3Z" style="opacity:0.2"></path><path d="M97.25,280.82s43.89,3.32,38.36,11.37-24.87,3.64-24.87,3.64S98.32,286.84,97.25,280.82Z" style="fill:#BA68C8"></path><path d="M119.42,297.2a3.74,3.74,0,0,1-1,0c-.68,0-1.66-.09-2.86-.19-2.42-.2-5.74-.58-9.39-1.17s-6.92-1.3-9.27-1.88c-1.18-.28-2.12-.53-2.77-.72a3.81,3.81,0,0,1-1-.35,4.36,4.36,0,0,1,1,.15l2.81.57c2.37.48,5.64,1.12,9.27,1.72s7,1,9.34,1.31l2.84.36A4.72,4.72,0,0,1,119.42,297.2Z" style="fill:#fff"></path><path d="M126.62,285.24a5.83,5.83,0,0,1-1.3-.21l-3.51-.73c-3-.62-7-1.45-11.58-2.24s-8.67-1.37-11.67-1.7c-1.5-.17-2.71-.3-3.55-.37a6.06,6.06,0,0,1-1.31-.18,7.11,7.11,0,0,1,1.32,0c.85,0,2.07.08,3.58.2,3,.24,7.17.76,11.72,1.56s8.64,1.68,11.58,2.39c1.47.35,2.65.66,3.46.89A7.14,7.14,0,0,1,126.62,285.24Z" style="fill:#fff"></path><g style="opacity:0.4"><path d="M122,268.2c.13.28-2.44,1.84-7,3.41-1.14.39-2.4.8-3.78,1.13s-2.87.66-4.44,1a65.25,65.25,0,0,1-10.38.9A66.2,66.2,0,0,1,86,273.7c-1.58-.31-3.07-.58-4.44-1s-2.65-.74-3.79-1.13c-4.58-1.57-7.14-3.13-7-3.42s3,.57,7.51,1.65c1.15.27,2.4.56,3.76.79s2.8.47,4.33.7a83.45,83.45,0,0,0,10,.67,83.4,83.4,0,0,0,10-.66c1.53-.23,3-.42,4.34-.7s2.61-.52,3.75-.79C119,268.77,121.81,267.83,122,268.2Z" style="fill:#fff"></path></g><circle cx="97.1" cy="237.36" r="26.49" style="fill:#BA68C8"></circle><path d="M123.35,233.79A122,122,0,0,1,94.72,235a6.31,6.31,0,0,0-6.8,6h0a6.33,6.33,0,0,0,5.89,6.58c10.39.73,19.92.71,28.19-1.11C122,246.43,124.61,242.15,123.35,233.79Z" style="fill:#263238"></path><path d="M99.07,241.25a.74.74,0,1,1,.13-1.48.74.74,0,0,1,.71.8A.77.77,0,0,1,99.07,241.25Z" style="fill:#fff"></path><path d="M118,240.72a.74.74,0,1,1,.13-1.48.74.74,0,0,1,.71.8A.77.77,0,0,1,118,240.72Z" style="fill:#fff"></path><path d="M113.4,240.89c.06,0-.1.62-.69,1.42a4.86,4.86,0,0,1-3.29,1.94,4.47,4.47,0,0,1-3.54-1.41c-.68-.72-.9-1.3-.85-1.33s.4.46,1.1,1.06a4.54,4.54,0,0,0,3.25,1.16,4.89,4.89,0,0,0,3-1.66C113.05,241.38,113.33,240.85,113.4,240.89Z" style="fill:#fff"></path><path d="M98,210.89s.11,0,.3,0a7,7,0,0,1,.85.18,10.47,10.47,0,0,1,2.9,1.28,12.92,12.92,0,0,1,3.45,3.21,22.92,22.92,0,0,1,2.67,5.1A27.52,27.52,0,0,1,110,230.9a22.75,22.75,0,0,1-.23,3.15,4.23,4.23,0,0,1-.25,1.13c-.09,0,.18-1.64.12-4.28a29.93,29.93,0,0,0-2-10,23.91,23.91,0,0,0-2.57-5,12.83,12.83,0,0,0-3.26-3.19A16.45,16.45,0,0,0,98,210.89Z" style="fill:#fff"></path><path d="M79.43,237.92s0-.13,0-.38a10.55,10.55,0,0,1,.06-1.1,21.81,21.81,0,0,1,.73-4A27.11,27.11,0,0,1,86.82,221a23.49,23.49,0,0,1,11.41-6.7,16.77,16.77,0,0,1,4-.43,8.84,8.84,0,0,1,1.09.07c.25,0,.38.05.38.07a25.84,25.84,0,0,0-5.41.65,24.08,24.08,0,0,0-11.13,6.7,28.22,28.22,0,0,0-6.64,11.24A42.71,42.71,0,0,0,79.43,237.92Z" style="fill:#fff"></path><path d="M104.38,219.32c0-.06.25-.23.61,0a.72.72,0,0,1,.29.7.86.86,0,0,1-.65.69.85.85,0,0,1-.86-.39.74.74,0,0,1,0-.76c.24-.37.56-.33.56-.26s-.16.17-.22.41a.37.37,0,0,0,.07.34.43.43,0,0,0,.36.15.43.43,0,0,0,.28-.28.36.36,0,0,0-.07-.33C104.6,219.41,104.39,219.39,104.38,219.32Z" style="fill:#fff"></path><path d="M85.48,237.57c0-.06.25-.22.61,0a.73.73,0,0,1,.29.7.85.85,0,0,1-.65.69.83.83,0,0,1-.86-.39.74.74,0,0,1,0-.76c.24-.37.56-.32.56-.26s-.16.17-.22.42a.36.36,0,0,0,.07.33.43.43,0,0,0,.36.15.41.41,0,0,0,.28-.28.37.37,0,0,0-.07-.33C85.7,237.67,85.49,237.64,85.48,237.57Z" style="fill:#fff"></path><path d="M106.2,225.88c0-.06.24-.22.61,0a.71.71,0,0,1,.28.7.81.81,0,0,1-1.5.3.74.74,0,0,1,0-.76c.24-.37.56-.32.55-.26s-.16.18-.21.42a.33.33,0,0,0,.07.33.41.41,0,0,0,.36.15.39.39,0,0,0,.27-.27.38.38,0,0,0-.06-.34C106.41,226,106.21,226,106.2,225.88Z" style="fill:#fff"></path><path d="M73.44,236.87c0-.05.24-.22.61,0a.72.72,0,0,1,.28.71.81.81,0,0,1-1.5.3.72.72,0,0,1,0-.76c.24-.37.56-.33.55-.26s-.16.17-.22.41a.41.41,0,0,0,.07.34.39.39,0,0,0,.36.14.38.38,0,0,0,.28-.27.38.38,0,0,0-.06-.34C73.65,237,73.45,237,73.44,236.87Z" style="fill:#fff"></path><path d="M88.05,240.79a70,70,0,0,1-8.74-.54,74.86,74.86,0,0,1-8.69-1.05,70.13,70.13,0,0,1,8.74.54A75.63,75.63,0,0,1,88.05,240.79Z" style="fill:#fff"></path><path d="M77.12,239.76a2.32,2.32,0,1,0,2.31-2.31A2.31,2.31,0,0,0,77.12,239.76Z" style="fill:#263238"></path><g style="opacity:0.4"><path d="M82.08,255.09c-.06.14-.89,0-2.14-.77a12.75,12.75,0,0,1-4.06-4.67A25.41,25.41,0,0,1,73.16,241a27.66,27.66,0,0,1,.94-11.14,26.16,26.16,0,0,1,12.53-15.45,21.61,21.61,0,0,1,5.68-2.18c1.4-.3,2.21-.28,2.24-.12.12.41-2.92,1.18-7,3.87a29,29,0,0,0-6.23,5.65,26.1,26.1,0,0,0-4.76,9,27.72,27.72,0,0,0-1,10.14,27.29,27.29,0,0,0,2,8.13,15,15,0,0,0,3,4.69C81.51,254.49,82.17,254.91,82.08,255.09Z" style="fill:#fff"></path></g></g><g id="freepik--Character--inject-30"><path d="M531.23,111.29c.19.53,2.65,35.87,2.65,35.87l-19.61-1.49-2.94-29Z" style="fill:#455a64"></path><polygon points="533.88 147.16 535.79 146.62 533.05 110.77 531 111.35 533.88 147.16" style="fill:#263238"></polygon><path d="M521.35,118.41a.83.83,0,1,1-.83-.83A.83.83,0,0,1,521.35,118.41Z" style="fill:#263238"></path><path d="M582.54,127.14a1.56,1.56,0,0,0,2.09,2c1-.46,1.26-1.87,1.12-3s-.46-2.36.07-3.38a7.93,7.93,0,0,1,1.86-1.84,5,5,0,0,0,1.61-4.12,4.18,4.18,0,0,0-2.69-3.43c-1.47-.5-3.35-.14-4.41-1.29-.77-.83-.75-2.13-1.32-3.1-.9-1.52-2.94-1.86-4.7-1.72s-3.55.61-5.23.09c-1.4-.43-2.52-1.49-3.82-2.17a7.69,7.69,0,0,0-10.58,10,4.91,4.91,0,0,0,2.26,2.49" style="fill:#263238"></path><path d="M580.8,157l-16.56-1.32c-.1-1.93,0-9.41,0-9.41s-6.89-1.08-7-8,1.11-22.71,1.11-22.71h0a23.93,23.93,0,0,1,24.05,3l1,.79Z" style="fill:#ffbe9d"></path><path d="M560,127.42a1,1,0,1,0-1.41-.07A1,1,0,0,0,560,127.42Z" style="fill:#263238"></path><path d="M558.32,125.85c.11.12.79-.4,1.74-.41s1.63.49,1.74.36-.06-.26-.36-.49a2.25,2.25,0,0,0-1.39-.44,2.35,2.35,0,0,0-1.38.47C558.37,125.58,558.27,125.79,558.32,125.85Z" style="fill:#263238"></path><path d="M569.25,126.67a1,1,0,1,0,1.38.33A1,1,0,0,0,569.25,126.67Z" style="fill:#263238"></path><path d="M568.63,126.68c.11.12.78-.4,1.73-.4s1.64.48,1.74.36-.05-.27-.35-.5a2.42,2.42,0,0,0-1.4-.44,2.29,2.29,0,0,0-1.38.48C568.68,126.41,568.58,126.63,568.63,126.68Z" style="fill:#263238"></path><path d="M564.82,134.51a4.54,4.54,0,0,0-1.53-.33c-.25,0-.44-.08-.46-.21a1.26,1.26,0,0,1,.18-.71c.24-.63.49-1.27.75-1.93a26.85,26.85,0,0,0,1.62-5.07,26.65,26.65,0,0,0-2.13,4.88c-.24.67-.48,1.31-.71,1.94a1.58,1.58,0,0,0-.13,1,.62.62,0,0,0,.42.4,1.42,1.42,0,0,0,.43.05A4.59,4.59,0,0,0,564.82,134.51Z" style="fill:#263238"></path><path d="M567.91,135.56a18.21,18.21,0,0,1-4.66,1.35,2.63,2.63,0,0,0,3.1,1C568.41,137.2,567.91,135.56,567.91,135.56Z" style="fill:#fff"></path><path d="M564.26,146.15a16,16,0,0,0,9-2.56s-2.12,5-9,4.34Z" style="fill:#eb996e"></path><path d="M558.27,117.31s4,2.34,9.67,0c3.7-1.51,7.92-2.08,8.79-1.29s.78,4.48,4.24,5.81c0,0-.76,7,2.06,7s1.87-11,1.87-11l-6.6-3.85-7.37-2-7.11.48-5.55,1.08Z" style="fill:#263238"></path><path d="M582.64,126.53c.11-.06,4.73-1.4,4.58,3.31s-4.85,3.58-4.85,3.45S582.64,126.53,582.64,126.53Z" style="fill:#ffbe9d"></path><path d="M583.86,131.55s.08.06.22.13a.87.87,0,0,0,.61,0,2,2,0,0,0,1-1.79,2.64,2.64,0,0,0-.19-1.18.94.94,0,0,0-.6-.65.4.4,0,0,0-.49.21c-.07.13,0,.22-.07.23s-.09-.08-.05-.28a.54.54,0,0,1,.19-.29.6.6,0,0,1,.46-.1,1.16,1.16,0,0,1,.84.75,2.87,2.87,0,0,1,.24,1.33,2.13,2.13,0,0,1-1.26,2,.86.86,0,0,1-.75-.15C583.87,131.66,583.85,131.56,583.86,131.55Z" style="fill:#eb996e"></path><path d="M585.83,111.93c0,.15-.73.08-1.52.33s-1.33.7-1.44.6.34-.8,1.29-1.09S585.89,111.8,585.83,111.93Z" style="fill:#263238"></path><path d="M583.16,109a3.32,3.32,0,0,1,.13,2.24c-.25,1.27-1,2-1.14,1.94s.42-.91.63-2S583,109,583.16,109Z" style="fill:#263238"></path><path d="M562.94,124.3c-.15.26-1.05,0-2.14,0s-2,.1-2.12-.17.81-.93,2.17-.87S563.09,124.06,562.94,124.3Z" style="fill:#263238"></path><path d="M573.5,123.42c-.14.25-1,0-2.13,0s-2,.1-2.12-.17.81-.94,2.17-.87S573.66,123.18,573.5,123.42Z" style="fill:#263238"></path><path d="M612.49,414.49l1.64,6.89s11.28,14.65,14.75,13.93c2.28-.47-.52-4.29-4.81-15.41l-.9-4.6Z" style="fill:#BA68C8"></path><path d="M629.34,433.15a.59.59,0,0,1-.09.21,1.26,1.26,0,0,1-.47.44,1.88,1.88,0,0,1-1,.22,2.75,2.75,0,0,1-1.28-.47,56.25,56.25,0,0,1-5.68-5.3,74.62,74.62,0,0,1-5-5.9c-.6-.79-1.07-1.44-1.39-1.9l-.36-.53c-.08-.12-.12-.19-.11-.19l.15.17.39.5c.41.54.89,1.15,1.44,1.86,1.23,1.55,3,3.66,5.07,5.85a66.4,66.4,0,0,0,5.61,5.32,2.12,2.12,0,0,0,2.16.3A1.46,1.46,0,0,0,629.34,433.15Z" style="fill:#263238"></path><path d="M627.75,428.44s-.36,0-.92.05a5.35,5.35,0,0,0-2,.76,4.15,4.15,0,0,0-1.52,1.53c-.27.49-.34.84-.38.83a2.13,2.13,0,0,1,.25-.9,3.85,3.85,0,0,1,1.54-1.63,4.9,4.9,0,0,1,2.13-.74A1.93,1.93,0,0,1,627.75,428.44Z" style="fill:#263238"></path><path d="M617.07,425s.12-.5.21-1.3a5.27,5.27,0,0,0-.56-3,5,5,0,0,0-2.16-2.18,8.3,8.3,0,0,0-1.22-.44,1.16,1.16,0,0,1,.35,0,3.79,3.79,0,0,1,.93.29,4.8,4.8,0,0,1,2.28,2.21,5.14,5.14,0,0,1,.53,3.14,5.92,5.92,0,0,1-.22.95A1.28,1.28,0,0,1,617.07,425Z" style="fill:#263238"></path><path d="M613.21,415.66a7.66,7.66,0,0,1,.61,2.16c.21,1.22.44,2.19.39,2.21a7.8,7.8,0,0,1-.59-2.17C613.41,416.64,613.16,415.68,613.21,415.66Z" style="fill:#263238"></path><path d="M624.27,420.87c0,.06-.64,0-1.4.22s-1.32.47-1.35.42a2.5,2.5,0,0,1,1.31-.62A2.55,2.55,0,0,1,624.27,420.87Z" style="fill:#263238"></path><path d="M624.5,422.05c0,.06-.54,0-1.17.16s-1.08.44-1.11.39a1.7,1.7,0,0,1,1.07-.59A1.72,1.72,0,0,1,624.5,422.05Z" style="fill:#263238"></path><path d="M625.4,423.53a3.23,3.23,0,0,0-2.33.53,1.56,1.56,0,0,1,1.07-.69A1.51,1.51,0,0,1,625.4,423.53Z" style="fill:#263238"></path><path d="M623.5,420.38a1.32,1.32,0,0,1-.38-.05,7.07,7.07,0,0,1-1-.27,8.9,8.9,0,0,1-1.4-.62A8.23,8.23,0,0,1,620,419a1.13,1.13,0,0,1-.57-.86.67.67,0,0,1,.86-.53,1.78,1.78,0,0,1,.78.53c.41.4.76.79,1,1.12s.48.63.62.83a1.44,1.44,0,0,1,.19.33s-.35-.42-.93-1.06c-.28-.32-.64-.7-1.05-1.09a1.68,1.68,0,0,0-.7-.46c-.26-.07-.59.07-.6.34s.25.52.47.69.51.34.75.48a11.58,11.58,0,0,0,1.36.65C623,420.23,623.5,420.34,623.5,420.38Z" style="fill:#263238"></path><path d="M622.9,420.23a1.8,1.8,0,0,1,0-.34c0-.22,0-.54.08-.94a5.05,5.05,0,0,1,.35-1.36,3,3,0,0,1,.45-.72.75.75,0,0,1,.89-.28.86.86,0,0,1,.31.89,3.33,3.33,0,0,1-.25.81,4.07,4.07,0,0,1-.8,1.16,5.86,5.86,0,0,1-.72.61.82.82,0,0,1-.3.17s.39-.3.91-.88a4.32,4.32,0,0,0,.74-1.14,3.1,3.1,0,0,0,.22-.75c0-.26,0-.58-.21-.69s-.47,0-.64.24a2.93,2.93,0,0,0-.42.66,5,5,0,0,0-.39,1.31A8.37,8.37,0,0,1,622.9,420.23Z" style="fill:#263238"></path><path d="M614.13,421.38l-.79-3.31s2.76.51,3.48,2.58a8.71,8.71,0,0,1,.53,3.54l6,6.47s1.51-3,4.24-2.24c0,0,2.14,4.72,2.08,5.91s-1.44,1-1.93.81a24.05,24.05,0,0,1-5.38-4.24C619.19,427.6,615.67,423.41,614.13,421.38Z" style="opacity:0.4"></path><path d="M556.43,418l0-9.19,17.22-.21.22,13.45-1.06.08c-4.75.32-24.17,1.3-27.36.38C541.84,421.45,556.43,418,556.43,418Z" style="fill:#BA68C8"></path><g style="opacity:0.4"><path d="M567.58,422a6,6,0,0,1,2.15-3.7,5.79,5.79,0,0,1,4-1.3l.06,4.82Z"></path></g><path d="M549.31,419.93s-5.12,1.54-4.46,2.37,20.31.59,29-.28l0-.38-22.93.48S550.31,420,549.31,419.93Z" style="opacity:0.4"></path><path d="M574.06,421.62l-.29,0-.85.06-3.13.18c-2.65.12-6.3.25-10.34.31s-7.69,0-10.33,0l-3.14-.09-.85,0-.29,0a.94.94,0,0,1,.29,0H546l3.14,0c2.64,0,6.3,0,10.33,0s7.69-.16,10.33-.25l3.13-.11.85,0Z" style="fill:#263238"></path><path d="M550.86,422.39a6.67,6.67,0,0,0-.6-1.48,7.26,7.26,0,0,0-1.08-1.19,2.34,2.34,0,0,1,1.26,1.07A2.27,2.27,0,0,1,550.86,422.39Z" style="fill:#263238"></path><path d="M555.91,419.75s-.29-.26-.55-.65-.42-.74-.37-.77.29.26.55.65S556,419.72,555.91,419.75Z" style="fill:#263238"></path><path d="M557.3,419c0,.05-.31-.13-.61-.39s-.52-.51-.48-.56.31.14.61.4S557.34,419,557.3,419Z" style="fill:#263238"></path><path d="M558.16,417.36a2.2,2.2,0,0,1-.9.12,2.05,2.05,0,0,1-.9-.08,2.11,2.11,0,0,1,.9-.13A2,2,0,0,1,558.16,417.36Z" style="fill:#263238"></path><path d="M558.45,416.21a1.79,1.79,0,0,1-1,.3,1.86,1.86,0,0,1-1-.12,5.16,5.16,0,0,1,1-.09A5.59,5.59,0,0,1,558.45,416.21Z" style="fill:#263238"></path><path d="M555.31,418.25a3.06,3.06,0,0,1-1.11,0A7.06,7.06,0,0,1,553,418a4,4,0,0,1-.68-.27.59.59,0,0,1-.27-.34.42.42,0,0,1,.16-.45,2,2,0,0,1,2.52.56,2.2,2.2,0,0,1,.37.74.76.76,0,0,1,0,.3,3,3,0,0,0-.52-.94,1.9,1.9,0,0,0-1-.6,1.73,1.73,0,0,0-1.32.1c-.17.14-.1.34.09.46a3.45,3.45,0,0,0,.63.25,7,7,0,0,0,1.14.28C554.89,418.22,555.31,418.22,555.31,418.25Z" style="fill:#263238"></path><path d="M555,418.31a1.12,1.12,0,0,1-.13-.76,1.81,1.81,0,0,1,.29-.82,1.11,1.11,0,0,1,.91-.57.44.44,0,0,1,.35.5,1.18,1.18,0,0,1-.18.5,3.26,3.26,0,0,1-.52.68,1.59,1.59,0,0,1-.62.45s.22-.2.52-.55a3.71,3.71,0,0,0,.45-.67c.15-.24.25-.66,0-.71s-.56.26-.72.48a1.83,1.83,0,0,0-.31.73A4.3,4.3,0,0,0,555,418.31Z" style="fill:#263238"></path><path d="M573.65,416.92a9.85,9.85,0,0,0-1.27.06,5.42,5.42,0,0,0-4.47,3.65c-.25.74-.27,1.24-.31,1.23a1,1,0,0,1,0-.34,4.28,4.28,0,0,1,.17-.94,5.22,5.22,0,0,1,4.59-3.75,4.78,4.78,0,0,1,.95,0C573.53,416.87,573.65,416.9,573.65,416.92Z" style="fill:#263238"></path><path d="M571.77,409.77a57.07,57.07,0,0,1,.18,7.08,62.77,62.77,0,0,1-.18-7.08Z" style="fill:#263238"></path><path d="M565.39,420.31a10,10,0,0,1-2.51.28,9.57,9.57,0,0,1-2.52-.17c0-.06,1.13,0,2.51,0S565.38,420.25,565.39,420.31Z" style="fill:#263238"></path><path d="M568.76,420.26s-.09.24-.2.5-.17.49-.23.49-.09-.27,0-.57S568.73,420.22,568.76,420.26Z" style="fill:#263238"></path><path d="M570,418.66s-.07.22-.25.41-.35.3-.39.26.07-.23.24-.41S570,418.62,570,418.66Z" style="fill:#263238"></path><path d="M571.83,417.92c0,.06-.24.06-.5.15s-.43.23-.47.19.09-.28.41-.39S571.84,417.86,571.83,417.92Z" style="fill:#263238"></path><path d="M573.12,417.56c0,.05-.08.14-.22.2s-.28.06-.3,0,.08-.15.22-.2S573.1,417.51,573.12,417.56Z" style="fill:#263238"></path><polyline points="544.71 235.36 552.75 414.01 579.57 414.57 575.12 265.01 605.29 415.72 630.79 415.72 596.73 235.36" style="fill:#263238"></polyline><polygon points="603.96 413.29 604.57 415.93 630.79 416.28 630.39 412.15 603.96 413.29" style="fill:#455a64"></polygon><path d="M624.37,413.13c.14,0,.31.29.38.7s0,.76-.14.78-.31-.29-.38-.7S624.22,413.16,624.37,413.13Z" style="fill:#455a64"></path><path d="M623.38,407.28c.15,0,.37.62.51,1.42s.13,1.48,0,1.51-.37-.61-.51-1.42S623.24,407.31,623.38,407.28Z" style="fill:#455a64"></path><path d="M622.4,401.43c.14,0,.37.62.5,1.42s.14,1.49,0,1.51-.36-.61-.5-1.42S622.26,401.46,622.4,401.43Z" style="fill:#455a64"></path><path d="M621.42,395.58c.14,0,.37.62.5,1.42s.13,1.49,0,1.51-.37-.61-.5-1.42S621.28,395.61,621.42,395.58Z" style="fill:#455a64"></path><path d="M620.43,389.73c.14,0,.37.62.51,1.42s.13,1.49,0,1.51-.37-.61-.51-1.42S620.29,389.76,620.43,389.73Z" style="fill:#455a64"></path><path d="M619.45,383.88c.14,0,.36.61.5,1.42s.13,1.48,0,1.51-.37-.61-.5-1.42S619.3,383.91,619.45,383.88Z" style="fill:#455a64"></path><path d="M618.46,378c.14,0,.36.61.5,1.42s.13,1.48,0,1.51-.37-.61-.5-1.42S618.31,378.06,618.46,378Z" style="fill:#455a64"></path><path d="M617.46,372.18c.14,0,.37.62.51,1.42s.13,1.49,0,1.51-.37-.61-.51-1.42S617.32,372.21,617.46,372.18Z" style="fill:#455a64"></path><path d="M616.47,366.33c.14,0,.36.62.5,1.42s.14,1.48,0,1.51-.36-.61-.5-1.42S616.32,366.36,616.47,366.33Z" style="fill:#455a64"></path><path d="M615.46,360.49c.15,0,.37.61.51,1.41s.14,1.49,0,1.51-.37-.61-.51-1.42S615.32,360.51,615.46,360.49Z" style="fill:#455a64"></path><path d="M614.46,354.64c.14,0,.37.61.51,1.42s.13,1.48,0,1.5-.37-.61-.51-1.42S614.32,354.66,614.46,354.64Z" style="fill:#455a64"></path><path d="M613.45,348.79c.14,0,.37.61.51,1.42s.14,1.48,0,1.5-.37-.61-.51-1.41S613.31,348.82,613.45,348.79Z" style="fill:#455a64"></path><path d="M612.44,343c.14,0,.37.6.51,1.41s.14,1.48,0,1.51-.37-.61-.51-1.42S612.29,343,612.44,343Z" style="fill:#455a64"></path><path d="M611.41,337.1c.15,0,.38.61.52,1.42s.14,1.48,0,1.5-.38-.61-.52-1.41S611.27,337.13,611.41,337.1Z" style="fill:#455a64"></path><path d="M610.39,331.26c.14,0,.37.61.51,1.41s.14,1.48,0,1.51-.37-.61-.51-1.42S610.25,331.28,610.39,331.26Z" style="fill:#455a64"></path><path d="M609.35,325.41c.14,0,.38.61.52,1.42s.14,1.48,0,1.5-.37-.6-.51-1.41S609.21,325.44,609.35,325.41Z" style="fill:#455a64"></path><path d="M608.31,319.57c.14,0,.38.61.52,1.42s.15,1.48,0,1.5-.37-.61-.51-1.41S608.17,319.6,608.31,319.57Z" style="fill:#455a64"></path><path d="M607.26,313.73c.14,0,.38.61.52,1.42s.15,1.48,0,1.5-.38-.61-.52-1.41S607.12,313.76,607.26,313.73Z" style="fill:#455a64"></path><path d="M606.21,307.89c.14,0,.37.61.52,1.42s.15,1.48,0,1.5-.38-.6-.53-1.41S606.06,307.92,606.21,307.89Z" style="fill:#455a64"></path><path d="M605.14,302.06c.14,0,.38.6.52,1.41s.16,1.48,0,1.5-.37-.6-.52-1.41S605,302.08,605.14,302.06Z" style="fill:#455a64"></path><path d="M604.06,296.22c.15,0,.38.61.53,1.41s.16,1.48,0,1.51-.37-.61-.52-1.41S603.92,296.25,604.06,296.22Z" style="fill:#455a64"></path><path d="M603,290.39c.14,0,.38.6.53,1.41s.15,1.48,0,1.5-.37-.6-.52-1.41S602.84,290.41,603,290.39Z" style="fill:#455a64"></path><path d="M601.88,284.56c.15,0,.38.6.53,1.41s.16,1.48,0,1.5-.38-.6-.53-1.41S601.74,284.58,601.88,284.56Z" style="fill:#455a64"></path><path d="M600.78,278.73c.14,0,.38.6.53,1.41s.16,1.47,0,1.5-.38-.6-.53-1.41S600.64,278.75,600.78,278.73Z" style="fill:#455a64"></path><path d="M599.66,272.9c.14,0,.38.6.53,1.41s.17,1.48,0,1.5-.38-.6-.54-1.4S599.52,272.93,599.66,272.9Z" style="fill:#455a64"></path><path d="M598.53,267.08c.14,0,.38.6.54,1.4s.17,1.48,0,1.51-.38-.6-.54-1.41S598.39,267.1,598.53,267.08Z" style="fill:#455a64"></path><path d="M597.38,261.25c.14,0,.39.6.54,1.41s.18,1.48,0,1.5-.39-.6-.55-1.4S597.24,261.28,597.38,261.25Z" style="fill:#455a64"></path><path d="M596.22,255.43c.14,0,.39.6.55,1.41s.18,1.47,0,1.5-.38-.6-.54-1.4S596.08,255.46,596.22,255.43Z" style="fill:#455a64"></path><path d="M595.05,249.62c.14,0,.39.6.55,1.4s.18,1.48,0,1.51-.39-.6-.55-1.41S594.91,249.65,595.05,249.62Z" style="fill:#455a64"></path><path d="M593.86,243.8c.14,0,.39.6.55,1.4s.19,1.48.05,1.51-.39-.6-.56-1.4S593.72,243.83,593.86,243.8Z" style="fill:#455a64"></path><path d="M593,239.42c.15,0,.33.28.41.68s0,.76-.1.79-.32-.28-.41-.68S592.81,239.45,593,239.42Z" style="fill:#455a64"></path><path d="M575,413.11c.14,0,.28.33.3.74s-.08.75-.22.76-.28-.32-.3-.73S574.81,413.12,575,413.11Z" style="fill:#455a64"></path><path d="M574.7,407.16c.15,0,.29.66.32,1.48s-.06,1.49-.2,1.5-.29-.66-.32-1.48S574.56,407.17,574.7,407.16Z" style="fill:#455a64"></path><path d="M574.52,401.21c.14,0,.28.66.3,1.48s-.07,1.49-.21,1.5-.28-.66-.31-1.48S574.38,401.21,574.52,401.21Z" style="fill:#455a64"></path><path d="M574.37,395.25c.14,0,.27.66.29,1.49s-.07,1.49-.22,1.49-.28-.66-.3-1.48S574.22,395.26,574.37,395.25Z" style="fill:#455a64"></path><path d="M574.23,389.3c.14,0,.27.66.29,1.48s-.08,1.49-.22,1.5-.28-.66-.3-1.49S574.08,389.3,574.23,389.3Z" style="fill:#455a64"></path><path d="M574.07,383.34c.15,0,.28.66.3,1.48s-.07,1.49-.22,1.5-.28-.66-.3-1.48S573.93,383.34,574.07,383.34Z" style="fill:#455a64"></path><path d="M573.87,377.38c.15,0,.29.66.32,1.48s-.07,1.49-.21,1.5-.28-.66-.31-1.48S573.73,377.39,573.87,377.38Z" style="fill:#455a64"></path><path d="M573.62,371.43c.15,0,.29.66.33,1.48s-.06,1.49-.2,1.5-.29-.66-.32-1.48S573.48,371.44,573.62,371.43Z" style="fill:#455a64"></path><path d="M573.39,365.48c.15,0,.29.65.32,1.48s-.06,1.49-.2,1.49-.29-.65-.32-1.47S573.25,365.48,573.39,365.48Z" style="fill:#455a64"></path><path d="M573.18,359.52c.15,0,.29.66.32,1.48s-.07,1.5-.21,1.5-.29-.66-.32-1.48S573,359.53,573.18,359.52Z" style="fill:#455a64"></path><path d="M573,353.57c.15,0,.28.65.31,1.48s-.08,1.49-.22,1.49-.28-.66-.3-1.48S572.86,353.57,573,353.57Z" style="fill:#455a64"></path><path d="M572.85,347.61c.14,0,.27.66.29,1.48s-.07,1.5-.22,1.5-.28-.66-.3-1.48S572.7,347.61,572.85,347.61Z" style="fill:#455a64"></path><path d="M572.72,341.66c.14,0,.27.66.29,1.48s-.09,1.49-.23,1.49-.27-.66-.29-1.48S572.57,341.66,572.72,341.66Z" style="fill:#455a64"></path><path d="M572.62,335.7c.14,0,.27.66.28,1.48s-.09,1.5-.24,1.5-.27-.66-.28-1.49S572.47,335.7,572.62,335.7Z" style="fill:#455a64"></path><path d="M572.55,329.74c.14,0,.26.67.27,1.49s-.1,1.49-.24,1.49-.27-.66-.28-1.48S572.4,329.75,572.55,329.74Z" style="fill:#455a64"></path><path d="M572.5,323.79c.15,0,.27.66.27,1.49s-.1,1.48-.25,1.49-.26-.67-.27-1.49S572.36,323.79,572.5,323.79Z" style="fill:#455a64"></path><path d="M572.49,317.83c.14,0,.26.67.26,1.49s-.11,1.49-.26,1.49-.26-.67-.26-1.49S572.35,317.83,572.49,317.83Z" style="fill:#455a64"></path><path d="M572.51,311.87c.14,0,.26.67.25,1.49s-.12,1.49-.26,1.49-.26-.67-.26-1.49S572.36,311.87,572.51,311.87Z" style="fill:#455a64"></path><path d="M572.55,305.92c.15,0,.26.67.25,1.49s-.13,1.49-.27,1.49-.26-.67-.25-1.5S572.41,305.92,572.55,305.92Z" style="fill:#455a64"></path><path d="M572.63,300c.15,0,.25.67.24,1.49s-.14,1.49-.28,1.49-.25-.67-.24-1.49S572.49,300,572.63,300Z" style="fill:#455a64"></path><path d="M572.74,294c.14,0,.25.67.23,1.49s-.14,1.49-.29,1.49-.25-.68-.23-1.5S572.59,294,572.74,294Z" style="fill:#455a64"></path><path d="M572.87,288.05c.15,0,.25.67.23,1.49s-.16,1.49-.3,1.49-.24-.67-.22-1.5S572.73,288,572.87,288.05Z" style="fill:#455a64"></path><path d="M573.08,282.09c.15,0,.24.68.2,1.5s-.17,1.48-.32,1.48-.23-.68-.2-1.5S572.94,282.08,573.08,282.09Z" style="fill:#455a64"></path><path d="M573.43,276.14c.14,0,.22.68.16,1.5s-.21,1.48-.36,1.47-.21-.68-.16-1.5S573.29,276.13,573.43,276.14Z" style="fill:#455a64"></path><path d="M574,270.21c.15,0,.2.69.11,1.51s-.26,1.46-.41,1.45-.19-.69-.11-1.51S573.83,270.19,574,270.21Z" style="fill:#455a64"></path><path d="M574.55,265.78c.14,0,.21.37.15.78s-.22.72-.36.7-.21-.36-.15-.77S574.41,265.76,574.55,265.78Z" style="fill:#455a64"></path><polygon points="552.05 414.88 580.42 415.34 580.19 410.62 552.05 410.76 552.05 414.88" style="fill:#455a64"></polygon><path d="M570.65,237.63a3.83,3.83,0,0,1,.17,1.09c.08.7.17,1.72.27,3,.2,2.52.45,6,.69,9.87.11,1.93.22,3.76.31,5.45a16.79,16.79,0,0,0,.52,4.34,3.69,3.69,0,0,0,1.81,2.15,5.78,5.78,0,0,0,1,.3.56.56,0,0,1-.28,0,2.11,2.11,0,0,1-.83-.15,3.74,3.74,0,0,1-2.07-2.21,15.73,15.73,0,0,1-.66-4.44c-.11-1.69-.23-3.52-.35-5.44-.24-3.86-.43-7.36-.54-9.89-.05-1.27-.09-2.29-.1-3A5.23,5.23,0,0,1,570.65,237.63Z" style="fill:#455a64"></path><path d="M573.41,240c0,.07-.23.24-.25.66a.79.79,0,0,0,.2.62.64.64,0,0,0,.7.09.65.65,0,0,0,.44-.56.81.81,0,0,0-.28-.58c-.31-.28-.62-.23-.64-.3s.33-.3.86,0a1.12,1.12,0,0,1,.54.87,1.16,1.16,0,0,1-2,.8,1.15,1.15,0,0,1-.22-1C573,240,573.41,239.93,573.41,240Z" style="fill:#455a64"></path><path d="M598.64,244.23a5,5,0,0,1-2.22.85,9.42,9.42,0,0,1-10-4.46,5.06,5.06,0,0,1-.85-2.23c.08,0,.36.84,1.16,2a9.83,9.83,0,0,0,9.62,4.3C597.78,244.52,598.61,244.15,598.64,244.23Z" style="fill:#455a64"></path><path d="M554,237.63a3.71,3.71,0,0,1-.1,1.93,7.6,7.6,0,0,1-6.69,5.87,3.68,3.68,0,0,1-1.93-.16c0-.09.74,0,1.88-.2a8,8,0,0,0,6.39-5.6C553.93,238.36,554,237.62,554,237.63Z" style="fill:#455a64"></path><path d="M537.77,160.55l-25,6.49,4-29.63h0l.51-1.41,9.16-1.42-1.09-6.76a5.5,5.5,0,0,0-6.83-4.34l-3,.8a7.83,7.83,0,0,0-5,4c-1.73,3.41-3.43,7.13-3.27,6.81h0l-13.4,36.35a13.74,13.74,0,0,0,1.48,14.65c4.32,5.61,14.75,1.71,19.66.76l32-7.05Z" style="fill:#ffbe9d"></path><path d="M630,218.53a16.74,16.74,0,0,0-.08-22.06l-26.74-30.33-7.16,20c.49.33,20.82,22.13,20.82,22.13l-17.47,21.78A12.53,12.53,0,0,0,597.28,242l3,12.18,14.46-6.48-1-1.5h-9.6l-.57-2.3h0Z" style="fill:#ffbe9d"></path><path d="M620.59,204.39a8.39,8.39,0,0,1-2,2.38,13.26,13.26,0,0,1-2.25,2.07,7.08,7.08,0,0,1,1.88-2.44A10.83,10.83,0,0,1,620.59,204.39Z" style="fill:#eb996e"></path><path d="M539,241.71l57.74-3.87-.68-28.45,0-20.59,6.43,9.49,17.16-17.93-19.18-18.42h0a30,30,0,0,0-11.67-7.55,23.68,23.68,0,0,0-7.31-1.4h0a29.29,29.29,0,0,1-17.65,0,86.07,86.07,0,0,0-16,3L525.36,162l7.37,27.48L546.26,185S538.85,236,539,241.71Z" style="fill:#BA68C8"></path><polygon points="602.45 198.29 606.4 197.11 605.05 195.58 602.45 198.29" style="fill:#BA68C8"></polygon><path d="M596.59,189.84a14.16,14.16,0,0,1-2.29-3.11,14.56,14.56,0,0,1-1.86-3.39,28.19,28.19,0,0,1,4.15,6.5Z" style="fill:#263238"></path><polygon points="532.79 189.78 528.32 183.9 531.07 183.29 532.79 189.78" style="fill:#BA68C8"></polygon><g style="opacity:0.6000000000000001"><path d="M604.78,166.47s-.07.09-.22.23l-.7.61a14.58,14.58,0,0,1-3.1,1.8,15.24,15.24,0,0,1-5.54,1.18,14.93,14.93,0,0,1-7.31-1.59,8.43,8.43,0,0,1-3.41-2.78,3.34,3.34,0,0,1-.6-2.33,2.28,2.28,0,0,1,1.74-1.79,3,3,0,0,1,2.54.53,4.73,4.73,0,0,1,1.58,2.13,7.19,7.19,0,0,1-.11,5.39,9,9,0,0,1-3.7,4.31,14,14,0,0,1-5.62,1.92,13.05,13.05,0,0,1-6.12-.51,8.44,8.44,0,0,1-2.76-1.61,10.32,10.32,0,0,1-2-2.54c-1.08-1.85-1.82-3.83-3.1-5.39a7.57,7.57,0,0,0-5.07-2.69,9.89,9.89,0,0,0-5.55,1,13.89,13.89,0,0,0-4.33,3.37,5.49,5.49,0,0,0-1.38,4.76,3.24,3.24,0,0,0,1.29,2,3.07,3.07,0,0,0,2.21.48,2.36,2.36,0,0,0,1.65-1.34,4.68,4.68,0,0,0,.41-2.16,12.87,12.87,0,0,0-.9-4.16A14.43,14.43,0,0,0,542,158.12c-.81-.05-1.24,0-1.24-.05A8.06,8.06,0,0,1,542,158a13.86,13.86,0,0,1,3.54.53,14.29,14.29,0,0,1,5,2.58,14.62,14.62,0,0,1,4.44,6,13.72,13.72,0,0,1,1,4.3,5.13,5.13,0,0,1-.43,2.35,2.81,2.81,0,0,1-2,1.57,3.44,3.44,0,0,1-2.54-.53,3.71,3.71,0,0,1-1.49-2.21,5.32,5.32,0,0,1,.1-2.74,7.38,7.38,0,0,1,1.36-2.43,14.12,14.12,0,0,1,4.48-3.52,10.43,10.43,0,0,1,5.83-1.1,8.11,8.11,0,0,1,5.41,2.87c1.35,1.65,2.09,3.66,3.15,5.46a9.62,9.62,0,0,0,1.87,2.41,7.89,7.89,0,0,0,2.58,1.51,12.83,12.83,0,0,0,5.89.5,13.69,13.69,0,0,0,5.41-1.84,8.47,8.47,0,0,0,3.52-4.07,6.73,6.73,0,0,0,.14-5,4.37,4.37,0,0,0-1.42-1.94,2.56,2.56,0,0,0-2.17-.47,1.85,1.85,0,0,0-1.44,1.45,3,3,0,0,0,.53,2,8,8,0,0,0,3.24,2.66,14.76,14.76,0,0,0,7.14,1.63,15.31,15.31,0,0,0,5.46-1.08A16.11,16.11,0,0,0,604.78,166.47Z" style="fill:#fff"></path></g><g style="opacity:0.6000000000000001"><path d="M595.6,194.8h-.28l-.79-.07c-.71,0-1.74-.16-3.07-.22a21.66,21.66,0,0,0-4.83.28,11.49,11.49,0,0,0-5.67,2.68,7.55,7.55,0,0,0-2,3,4,4,0,0,0,.42,3.69,3,3,0,0,0,1.6,1.13,2.36,2.36,0,0,0,1.94-.3,3.44,3.44,0,0,0,1.31-1.64,4.11,4.11,0,0,0,.19-2.18,9.12,9.12,0,0,0-2.08-4.18,12.66,12.66,0,0,0-3.83-3.11,14.15,14.15,0,0,0-10.14-1.28,17.83,17.83,0,0,0-8.84,5.37,9.82,9.82,0,0,0-2.53,4.18,3.22,3.22,0,0,0,.22,2.23,2.82,2.82,0,0,0,1.66,1.36,3.79,3.79,0,0,0,4-1.05,4.84,4.84,0,0,0,.95-3.92,6.32,6.32,0,0,0-1.76-3.46,10.86,10.86,0,0,0-3-2.15,14.73,14.73,0,0,0-10.87-1.27,9.55,9.55,0,0,0-3.51,2.1,5.46,5.46,0,0,1,.76-.77,8.22,8.22,0,0,1,2.68-1.52,14.78,14.78,0,0,1,11.1,1.13,11.29,11.29,0,0,1,3.1,2.2,6.81,6.81,0,0,1,1.9,3.67,5.31,5.31,0,0,1-1,4.29,4.23,4.23,0,0,1-4.47,1.2,3.3,3.3,0,0,1-2-1.59,3.78,3.78,0,0,1-.27-2.56,10.41,10.41,0,0,1,2.64-4.41,18.41,18.41,0,0,1,9.09-5.54,14.67,14.67,0,0,1,10.51,1.34,13.4,13.4,0,0,1,4,3.24,9.75,9.75,0,0,1,2.17,4.43,4.79,4.79,0,0,1-.23,2.43,4,4,0,0,1-1.51,1.85,2.84,2.84,0,0,1-2.3.34,3.48,3.48,0,0,1-1.83-1.3,4.4,4.4,0,0,1-.45-4.08,7.8,7.8,0,0,1,2.15-3.15,11.72,11.72,0,0,1,5.87-2.7,21,21,0,0,1,4.89-.19c1.34.09,2.37.23,3.07.32l.79.12A1.45,1.45,0,0,1,595.6,194.8Z" style="fill:#fff"></path></g><g style="opacity:0.6000000000000001"><path d="M596.66,227.38l-.26.05c-.17,0-.43.07-.77.1a13.35,13.35,0,0,1-3-.11,14.6,14.6,0,0,1-4.47-1.47,13.87,13.87,0,0,1-4.74-4.06,7.41,7.41,0,0,1-.93-1.55,2.37,2.37,0,0,1,0-2,1.62,1.62,0,0,1,.74-.77,1.45,1.45,0,0,1,1.1-.05,2.84,2.84,0,0,1,1.49,1.5,6.66,6.66,0,0,1,.26,4.26,10.24,10.24,0,0,1-2.11,4,14.08,14.08,0,0,1-8.36,4.59,15.78,15.78,0,0,1-10.11-1.63c-.39-.21-.76-.47-1.14-.7s-.7-.54-1.06-.81a7.36,7.36,0,0,1-1.77-2,3.66,3.66,0,0,1-.45-2.63,2.53,2.53,0,0,1,1.78-2,3.47,3.47,0,0,1,2.57.38,4.29,4.29,0,0,1,1.71,1.85,5.54,5.54,0,0,1,.06,4.74,7,7,0,0,1-3.22,3.18,9.39,9.39,0,0,1-4.15,1,19.76,19.76,0,0,1-7.39-1.63,27.51,27.51,0,0,1-9.11-6,18.29,18.29,0,0,1-2.59-3,1.83,1.83,0,0,1,.18.19l.5.59c.45.5,1.11,1.25,2.05,2.13a28.16,28.16,0,0,0,9.11,5.78,19.86,19.86,0,0,0,7.24,1.54,8.82,8.82,0,0,0,3.95-.94,6.52,6.52,0,0,0,3-3,5,5,0,0,0-.06-4.31,3.83,3.83,0,0,0-1.52-1.64,2.88,2.88,0,0,0-2.18-.32,2,2,0,0,0-1.42,1.57,3.15,3.15,0,0,0,.4,2.27,7.08,7.08,0,0,0,1.66,1.85c.34.25.66.53,1,.77s.72.47,1.09.67a15.22,15.22,0,0,0,9.78,1.58,13.65,13.65,0,0,0,8.08-4.39,9.89,9.89,0,0,0,2-3.8,6.24,6.24,0,0,0-.21-4A2.43,2.43,0,0,0,584.2,218a1.06,1.06,0,0,0-1.34.6,1.94,1.94,0,0,0,0,1.63,6.62,6.62,0,0,0,.87,1.47,13.56,13.56,0,0,0,4.58,4,14.7,14.7,0,0,0,4.37,1.53,15.88,15.88,0,0,0,2.93.21l.77-.05Z" style="fill:#fff"></path></g><polygon points="532.79 189.78 528.32 183.9 531.07 183.29 532.79 189.78" style="opacity:0.4"></polygon><polygon points="602.45 198.29 606.4 197.11 605.05 195.58 602.45 198.29" style="opacity:0.5"></polygon></g></svg>