<?xml version="1.0" encoding="UTF-8"?>
<svg xmlns="http://www.w3.org/2000/svg" xmlns:xlink="http://www.w3.org/1999/xlink" viewBox="0 0 128 128" width="128px" height="128px">
<g id="surface908304">
<path style=" stroke:none;fill-rule:nonzero;fill:rgb(100%,100%,100%);fill-opacity:1;" d="M 108.332031 39.566406 C 107.816406 39.890625 95.53125 46.707031 95.53125 61.824219 C 96.109375 79.066406 111.035156 85.113281 111.289062 85.113281 C 111.035156 85.4375 109.035156 93.351562 103.121094 101.648438 C 98.425781 108.796875 93.214844 116 85.300781 116 C 77.773438 116 75.070312 111.238281 66.382812 111.238281 C 57.054688 111.238281 54.414062 116 47.273438 116 C 39.359375 116 33.761719 108.410156 28.808594 101.328125 C 22.378906 92.0625 16.910156 77.523438 16.714844 63.5625 C 16.585938 56.164062 18.003906 48.894531 21.605469 42.71875 C 26.6875 34.09375 35.757812 28.242188 45.664062 28.046875 C 53.257812 27.792969 60.011719 33.261719 64.644531 33.261719 C 69.085938 33.261719 77.386719 28.046875 86.777344 28.046875 C 90.828125 28.050781 101.640625 29.273438 108.332031 39.566406 Z M 64.003906 26.570312 C 62.652344 19.8125 66.382812 13.058594 69.859375 8.746094 C 74.296875 3.539062 81.308594 0 87.355469 0 C 87.742188 6.757812 85.296875 13.382812 80.925781 18.207031 C 77 23.421875 70.242188 27.34375 64.003906 26.570312 Z M 64.003906 26.570312 "/>
</g>
</svg>
