<svg id="visual" viewBox="0 0 960 540" width="960" height="540" xmlns="http://www.w3.org/2000/svg" xmlns:xlink="http://www.w3.org/1999/xlink" version="1.1"><path d="M748 0L749.5 15C751 30 754 60 724.5 90C695 120 633 150 619.2 180C605.3 210 639.7 240 666 270C692.3 300 710.7 330 687.2 360C663.7 390 598.3 420 582.5 450C566.7 480 600.3 510 617.2 525L634 540L0 540L0 525C0 510 0 480 0 450C0 420 0 390 0 360C0 330 0 300 0 270C0 240 0 210 0 180C0 150 0 120 0 90C0 60 0 30 0 15L0 0Z" fill="#8224c7"></path><path d="M627 0L620.7 15C614.3 30 601.7 60 607.8 90C614 120 639 150 624 180C609 210 554 240 529.8 270C505.7 300 512.3 330 538.2 360C564 390 609 420 636.3 450C663.7 480 673.3 510 678.2 525L683 540L0 540L0 525C0 510 0 480 0 450C0 420 0 390 0 360C0 330 0 300 0 270C0 240 0 210 0 180C0 150 0 120 0 90C0 60 0 30 0 15L0 0Z" fill="#9133d1"></path><path d="M354 0L387.3 15C420.7 30 487.3 60 521.5 90C555.7 120 557.3 150 549.5 180C541.7 210 524.3 240 521.7 270C519 300 531 330 534.3 360C537.7 390 532.3 420 517 450C501.7 480 476.3 510 463.7 525L451 540L0 540L0 525C0 510 0 480 0 450C0 420 0 390 0 360C0 330 0 300 0 270C0 240 0 210 0 180C0 150 0 120 0 90C0 60 0 30 0 15L0 0Z" fill="#a141db"></path><path d="M393 0L369.7 15C346.3 30 299.7 60 294.2 90C288.7 120 324.3 150 326.5 180C328.7 210 297.3 240 287.7 270C278 300 290 330 306.3 360C322.7 390 343.3 420 361 450C378.7 480 393.3 510 400.7 525L408 540L0 540L0 525C0 510 0 480 0 450C0 420 0 390 0 360C0 330 0 300 0 270C0 240 0 210 0 180C0 150 0 120 0 90C0 60 0 30 0 15L0 0Z" fill="#b04fe5"></path><path d="M214 0L213 15C212 30 210 60 201.7 90C193.3 120 178.7 150 187.5 180C196.3 210 228.7 240 242.7 270C256.7 300 252.3 330 240.2 360C228 390 208 420 208.8 450C209.7 480 231.3 510 242.2 525L253 540L0 540L0 525C0 510 0 480 0 450C0 420 0 390 0 360C0 330 0 300 0 270C0 240 0 210 0 180C0 150 0 120 0 90C0 60 0 30 0 15L0 0Z" fill="#bf5cf0"></path><path d="M156 0L164 15C172 30 188 60 180.7 90C173.3 120 142.7 150 121.2 180C99.7 210 87.3 240 90.8 270C94.3 300 113.7 330 125.3 360C137 390 141 420 151 450C161 480 177 510 185 525L193 540L0 540L0 525C0 510 0 480 0 450C0 420 0 390 0 360C0 330 0 300 0 270C0 240 0 210 0 180C0 150 0 120 0 90C0 60 0 30 0 15L0 0Z" fill="#ce69fa"></path></svg>